<svg xmlns="http://www.w3.org/2000/svg" width="259.024" height="58.134" viewBox="0 0 259.024 58.134"><defs><style>.a{fill:#fed6cf;}.b{fill:#e7d5cf;}.c{fill:#fc8b7b;}.d{fill:#192451;}</style></defs><g transform="translate(0 0.001)"><g transform="translate(19.834 16.886)"><path class="a" d="M.011,5.17,9.342,0V10.4L0,15.583Z" transform="translate(9.925 8.777)"/><path class="b" d="M-.011,5.17-9.342,0V10.4L0,15.583Z" transform="translate(9.342 8.587)"/><path class="c" d="M-.159,5.444-9.26,0l.148,10.7L0,16.153Z" transform="translate(4.958 -0.001) rotate(-60)"/></g><g transform="translate(9.917 33.772)"><path class="a" d="M.011,5.17,9.342,0V10.4L0,15.583Z" transform="translate(9.925 8.777)"/><path class="b" d="M-.011,5.17-9.342,0V10.4L0,15.583Z" transform="translate(9.342 8.587)"/><path class="c" d="M-.159,5.444-9.26,0l.148,10.7L0,16.153Z" transform="translate(4.958 -0.001) rotate(-60)"/></g><g transform="translate(9.917)"><path class="a" d="M.011,5.17,9.342,0V10.4L0,15.583Z" transform="translate(9.925 8.777)"/><path class="b" d="M-.011,5.17-9.342,0V10.4L0,15.583Z" transform="translate(9.342 8.587)"/><path class="c" d="M-.159,5.444-9.26,0l.148,10.7L0,16.153Z" transform="translate(4.958 -0.001) rotate(-60)"/></g><g transform="translate(0 15.7)"><path class="a" d="M.011,5.17,9.1,0V10.4L0,15.583Z" transform="translate(9.879 10.015)"/><path class="b" d="M-.011,5.17-9.1,0V10.4L0,15.583Z" transform="translate(9.104 9.825)"/><path class="c" d="M-.09,5.326-9.123,0l.079,10.579L0,15.916Z" transform="translate(4.884 1.356) rotate(-60)"/></g><path class="d" d="M64.389,25.417a11.516,11.516,0,0,1-3.975-2.645,13.462,13.462,0,0,1-3.583-9.657,13.32,13.32,0,0,1,3.554-9.588A11.4,11.4,0,0,1,64.356.913a14.2,14.2,0,0,1,10.015,0,11.44,11.44,0,0,1,3.974,2.615,13.3,13.3,0,0,1,3.569,9.588,13.476,13.476,0,0,1-3.569,9.657,11.471,11.471,0,0,1-3.974,2.645,13.927,13.927,0,0,1-9.983,0ZM62.673,5.2a11.252,11.252,0,0,0-2.727,7.91,11.464,11.464,0,0,0,2.712,7.98,8.894,8.894,0,0,0,6.714,2.767,9.707,9.707,0,0,0,3.708-.7A8.426,8.426,0,0,0,76.072,21.1a11.443,11.443,0,0,0,2.726-7.98A11.251,11.251,0,0,0,76.072,5.2a9.6,9.6,0,0,0-13.4,0ZM0,13.039C0,4.547,5.609,0,13.554,0a25.162,25.162,0,0,1,8.608,1.5L22.629,4.4A22.676,22.676,0,0,0,13.554,2.48C7.439,2.48,3.116,5.825,3.116,13c0,7.215,4.168,10.823,10.36,10.823a20.84,20.84,0,0,0,6.7-1.09V13.829h3V24.387A26.544,26.544,0,0,1,13.4,26.229C5.3,26.229,0,21.532,0,13.039ZM207.694,25.628V.677h3.037V25.628Zm-21.56,0V3.082h-9l.39-2.4h20.253l.39,2.4H189.21V25.628Zm-21.561,0V.677h3.038V25.628Zm-26.663,0V.677h3.038V23.223h14.1l-.35,2.4Zm-14.666,0V.677h3.037V25.628Zm-30.909,0V.714L103.28.676c2.761,0,4.877.608,6.29,1.809a5.8,5.8,0,0,1,1.966,4.654c0,2.751-1.576,4.648-4.557,5.486,3.886.682,6.115,2.957,6.115,6.238a6.033,6.033,0,0,1-2.113,4.891c-1.5,1.244-3.722,1.874-6.611,1.874Zm3.038-2.33h8.685a6.672,6.672,0,0,0,4.441-1.292,4.271,4.271,0,0,0,1.4-3.406c0-2.851-2.433-4.622-6.349-4.622H95.373Zm0-11.687h7.05a7.772,7.772,0,0,0,4.508-1.112,3.546,3.546,0,0,0,1.528-3.058,3.92,3.92,0,0,0-1.28-3.137,6.7,6.7,0,0,0-4.406-1.222h-7.4ZM33.751,25.628V.677h3.038V23.223h14.1l-.351,2.4Z" transform="translate(48.293 16.098)"/></g></svg>