<svg xmlns="http://www.w3.org/2000/svg" width="508.8" height="425.307" viewBox="0 0 508.8 425.307"><defs><style>.a{fill:#ffded9;}.b{fill:#222831;}.c{fill:#34427b;}.d{fill:#5856d6;}.e{fill:#090000;}.f{fill:#fc8b7b;}.g{fill:#fff;}.h{fill:#293460;}.i{fill:#4052f2;}.j{fill:#c4d6eb;}.k{fill:#e08274;}.l{fill:#0b065a;}</style></defs><g transform="translate(0 0)"><path class="a" d="M82.8,380.891s-91.089-11.2-76.1-85.312,23.5-78.378-3.8-165.352,144.807-184,230.131-94.775S364.92,66.446,424.89,118.111s20.478,201.835-46.076,262.78H82.8" transform="translate(0 13.898)"/><path class="b" d="M0,0H16.759L14.807,50.958H1.951L0,0" transform="translate(103.807 316.882)"/><path class="b" d="M9.034,0,7.863,42.567H1.172L0,0H9.034" transform="translate(107.67 358.855)"/><path class="b" d="M0,18.678c0,10.317,15.679,18.68,35.02,18.68s35.02-8.362,35.02-18.68S54.361,0,35.02,0,0,8.362,0,18.678" transform="translate(78.224 291.791)"/><path class="c" d="M0,5.849c0,7.9,20.608,14.295,46.031,14.295s46.031-6.4,46.031-14.295S71.454.339,46.031.339,0-2.049,0,5.849" transform="translate(67.213 291.452)"/><path d="M.4,6.254H0a5.6,5.6,0,0,0,1,3.1,15.222,15.222,0,0,0,5.882,4.67,61.339,61.339,0,0,0,16.569,5.026,132.55,132.55,0,0,0,22.983,1.9c12.747,0,24.284-1.6,32.669-4.2a34.518,34.518,0,0,0,9.985-4.605,11.249,11.249,0,0,0,2.78-2.786,5.6,5.6,0,0,0,1-3.1,4.127,4.127,0,0,0-.409-1.843,4.33,4.33,0,0,0-.993-1.3A8.249,8.249,0,0,0,88.538,1.52,29.645,29.645,0,0,0,81.68.3c-2.738-.227-5.9-.3-9.407-.3C64.895,0,56,.34,46.436.34S27.977,0,20.6,0C14.493,0,9.429.229,5.835,1.091A10.508,10.508,0,0,0,1.588,2.952,4.405,4.405,0,0,0,.409,4.411,4.127,4.127,0,0,0,0,6.254H.809a3.321,3.321,0,0,1,.326-1.487,3.537,3.537,0,0,1,.811-1.056A7.5,7.5,0,0,1,4.593,2.286a28.868,28.868,0,0,1,6.665-1.176c2.7-.225,5.847-.3,9.34-.3,7.355,0,16.252.34,25.838.34S64.919.809,72.274.809c3.041,0,5.819.059,8.269.221a27.672,27.672,0,0,1,8.589,1.582,5.646,5.646,0,0,1,2.2,1.53,3.216,3.216,0,0,1,.728,2.112,4.792,4.792,0,0,1-.868,2.659,14.459,14.459,0,0,1-5.574,4.393,60.492,60.492,0,0,1-16.343,4.951,131.827,131.827,0,0,1-22.842,1.888c-12.676,0-24.153-1.6-32.43-4.168a33.821,33.821,0,0,1-9.744-4.484,10.521,10.521,0,0,1-2.584-2.58A4.792,4.792,0,0,1,.809,6.254H.4" transform="translate(66.808 291.046)"/><path class="b" d="M0,5.364H40.7V0H0Z" transform="translate(90.241 396.586)"/><path class="d" d="M41.1,5.769v-.4H.809V.809H40.7V5.769h.4v0h.4V0H0V6.173H41.509v-.4h-.4" transform="translate(89.836 396.181)"/><path class="a" d="M0,51.444H481.969L424.832,0H57.758" transform="translate(25.777 162.972)"/><path class="e" d="M.4,52.253H483.428L425.392,0H58.163a.4.4,0,0,0,0,.809H425.081L481.32,51.444H.4a.4.4,0,1,0,0,.809" transform="translate(25.372 162.568)"/><path class="f" d="M.975.569S-3.078,4.043,5.345,6.36s48.218-2.321,45.8-4.478S37.033-.378.975.569" transform="translate(234.01 164.993)"/><path class="b" d="M28.428,24.526C37.762,44.892,45.655,54.445,50.323,58.5c4.984,4.332,9.866,15.929,9.866,15.929-3.359-17.4-15.592-17.8-28.871-49.783S4.678.971,4.678.971A8.447,8.447,0,0,0,0,3.693C17.13,14.079,9.542,71.407,21.545,90.987S52.886,99.4,55.719,87.472,33.047,38.8,29.881,29.255c-.526-1.585-.993-3.165-1.453-4.729" transform="translate(408.155 19.468)"/><path class="b" d="M0,13.37H481.969V0H0Z" transform="translate(25.777 214.416)"/><path d="M.1.1V.2H481.969V13.37H.2V.1H.1v0H0V13.573H482.171V0H0V.1H.1" transform="translate(25.676 214.315)"/><path class="g" d="M32.412,5.953s-2.74,14.742-.757,21.263S9.071,53.58,6.614,52.823,0,44.414,0,44.414s15.97-16.349,16.2-20.79S18.522,0,18.522,0l13.89,5.953" transform="translate(377.687 360.245)"/><path d="M32.91,6.539l-.4-.073s-.37,2-.741,4.844a80.891,80.891,0,0,0-.743,9.981,24.054,24.054,0,0,0,.739,6.628,2.347,2.347,0,0,1,.1.7,6.7,6.7,0,0,1-.9,2.91,33.864,33.864,0,0,1-5.1,6.736A97.82,97.82,0,0,1,14.7,48.384a57.765,57.765,0,0,1-4.783,3.4,16.149,16.149,0,0,1-1.7.943,5.126,5.126,0,0,1-.593.235,1.268,1.268,0,0,1-.352.069.115.115,0,0,1-.045,0l-.115.388.119-.386a2.716,2.716,0,0,1-.854-.506,12.449,12.449,0,0,1-1.845-1.989,42.077,42.077,0,0,1-2.553-3.78c-.342-.565-.623-1.05-.819-1.4-.1-.172-.176-.31-.227-.4l-.061-.107-.018-.036L.5,45l.289.281s4-4.093,8.031-8.747c2.015-2.327,4.041-4.793,5.584-6.968a28.115,28.115,0,0,0,1.9-3,10.241,10.241,0,0,0,.567-1.256,3.908,3.908,0,0,0,.243-1.078c.059-1.1.233-3.13.461-5.55.342-3.632.805-8.146,1.182-11.752.19-1.8.356-3.377.478-4.5.061-.562.109-1.014.142-1.321s.051-.478.053-.478l-.4-.045-.16.372L32.75,6.912l.16-.372-.4-.073.4.073.16-.372L18.675,0l-.059.544s-.52,4.8-1.07,10.147c-.273,2.677-.556,5.491-.785,7.917s-.4,4.457-.461,5.58a3.182,3.182,0,0,1-.2.852,12.835,12.835,0,0,1-1.21,2.339,56.02,56.02,0,0,1-3.958,5.382C8.591,35.649,5.906,38.64,3.81,40.908c-1.046,1.133-1.948,2.086-2.588,2.756-.32.334-.573.6-.747.779l-.2.2-.067.071L0,44.93l.142.263c0,.006,1.046,1.928,2.406,3.954a27.383,27.383,0,0,0,2.193,2.9,9.839,9.839,0,0,0,1.127,1.1,3.5,3.5,0,0,0,1.125.649L7,53.8a.956.956,0,0,0,.273.036,1.814,1.814,0,0,0,.443-.063,5.66,5.66,0,0,0,1.026-.4,23.962,23.962,0,0,0,2.681-1.6A96.569,96.569,0,0,0,24.731,40.6a51.675,51.675,0,0,0,5.593-6.5,18.132,18.132,0,0,0,1.706-2.926,6.527,6.527,0,0,0,.643-2.56,3.242,3.242,0,0,0-.132-.935,23.246,23.246,0,0,1-.7-6.392,80.1,80.1,0,0,1,.734-9.876c.184-1.412.368-2.614.506-3.462.069-.425.127-.761.168-.989.02-.113.034-.2.047-.261s.016-.089.016-.089l.059-.32-.3-.127-.16.372" transform="translate(377.19 359.658)"/><path class="b" d="M41.1.541s-16.047,17.9-21.433,20.165c0,0-2.835,1.182-9.212-3.875,0,0-.425-.33-2.363,1.465S-2.065,26.9.487,31.053s13.229,4.441,22.016-3.78,16.349-13.985,19.562-15.4c0,0,1.182-.283,1.04-2.078s.059-12.263-2-9.251" transform="translate(368.035 386.126)"/><path d="M41.507.947l-.3-.271s-.061.071-.18.2c-.888.985-4.937,5.441-9.386,9.91-2.226,2.236-4.553,4.474-6.631,6.28-1.038.9-2.015,1.7-2.883,2.331a12.162,12.162,0,0,1-2.207,1.341l0,0,.1.233-.091-.235,0,0,.1.233-.091-.235a2.26,2.26,0,0,1-.734.091,7.632,7.632,0,0,1-2.861-.674,22.29,22.29,0,0,1-5.216-3.233.589.589,0,0,0-.364-.111,1.82,1.82,0,0,0-.882.308A9.817,9.817,0,0,0,8.223,18.4c-.411.382-1.133,1.012-1.975,1.8A35.179,35.179,0,0,0,2.2,24.578a14.057,14.057,0,0,0-1.56,2.539A6.241,6.241,0,0,0,0,29.687a3.738,3.738,0,0,0,.546,1.983,5.851,5.851,0,0,0,2.843,2.254,11.755,11.755,0,0,0,4.445.787c4.506,0,10.246-1.963,15.351-6.736,4.387-4.1,8.466-7.594,11.845-10.23,1.687-1.317,3.2-2.424,4.49-3.284a22.309,22.309,0,0,1,3.114-1.815l-.164-.37.1.395a1.683,1.683,0,0,0,.712-.423,1.983,1.983,0,0,0,.453-.678,2.812,2.812,0,0,0,.2-1.082c0-.1-.006-.21-.014-.322-.014-.182-.026-.48-.036-.852C43.84,8,43.809,5.769,43.642,3.844a15.489,15.489,0,0,0-.384-2.521,3.128,3.128,0,0,0-.35-.862A1.11,1.11,0,0,0,42.62.148.747.747,0,0,0,42.177,0a.8.8,0,0,0-.3.063A1.2,1.2,0,0,0,41.5.32a2.608,2.608,0,0,0-.326.4l.334.229-.3-.271.3.271.334.229a1.474,1.474,0,0,1,.277-.324.286.286,0,0,1,.065-.042h0l-.01-.047V.809h.01l-.01-.047V.735l-.028.071.028,0V.735l-.028.071.008-.02L42.146.8l0,0,.008-.02L42.146.8a.3.3,0,0,1,.075.085,2.306,2.306,0,0,1,.251.639,13.205,13.205,0,0,1,.334,2.08c.121,1.23.178,2.651.214,3.877.016.613.028,1.178.042,1.649s.024.848.042,1.095c.008.091.012.178.012.259a2,2,0,0,1-.136.773,1.126,1.126,0,0,1-.407.52.773.773,0,0,1-.162.087c-.018.008-.032.012-.038.016h-.006l.053.192-.047-.192h-.006l.053.192-.047-.192-.034.008-.034.014a23.358,23.358,0,0,0-3.237,1.882,144.439,144.439,0,0,0-16.436,13.6C17.672,32.026,12.11,33.9,7.834,33.9A11.01,11.01,0,0,1,3.7,33.175a5.048,5.048,0,0,1-2.46-1.928,2.927,2.927,0,0,1-.427-1.56,6.343,6.343,0,0,1,.975-3.025,23.552,23.552,0,0,1,3.7-4.6c.68-.684,1.344-1.3,1.914-1.825S8.452,19.3,8.773,19a9.161,9.161,0,0,1,1.5-1.186,1.191,1.191,0,0,1,.475-.2v-.065l-.01.063.01,0v-.065l-.01.063.042-.277-.17.216a.264.264,0,0,0,.127.061l.042-.277-.17.216a23.075,23.075,0,0,0,5.41,3.345,8.407,8.407,0,0,0,3.169.736,2.907,2.907,0,0,0,1.04-.15l0,0a13.264,13.264,0,0,0,2.551-1.564A67.839,67.839,0,0,0,28.6,14.888C34.893,8.931,41.8,1.22,41.808,1.216l.018-.018.014-.022L41.507.947" transform="translate(367.629 385.72)"/><path class="g" d="M0,5.955s2.74,14.74.755,21.261S23.339,53.58,25.8,52.826s6.614-8.411,6.614-8.411S16.442,28.066,16.2,23.625,13.89,0,13.89,0L0,5.955" transform="translate(448.713 365.121)"/><path d="M.457,6.541l-.4.073s.006.03.016.089A94.537,94.537,0,0,1,1.53,21.292a23.34,23.34,0,0,1-.7,6.394,3.16,3.16,0,0,0-.132.933A7.415,7.415,0,0,0,1.687,31.9a34.567,34.567,0,0,0,5.228,6.912,98.684,98.684,0,0,0,11.256,10.21,58.517,58.517,0,0,0,4.854,3.446,17.086,17.086,0,0,0,1.785.987,5.54,5.54,0,0,0,.694.273,2.076,2.076,0,0,0,.589.107.982.982,0,0,0,.275-.038h0a3.465,3.465,0,0,0,1.125-.652,13.024,13.024,0,0,0,1.975-2.122,41.845,41.845,0,0,0,2.606-3.854c.694-1.143,1.145-1.973,1.147-1.977l.142-.261-.208-.214-.178-.182c-.874-.9-4.822-5.01-8.571-9.4-1.876-2.2-3.7-4.464-5.064-6.43A24.126,24.126,0,0,1,17.7,26.034a8.377,8.377,0,0,1-.461-1.056,2.993,2.993,0,0,1-.176-.787c-.061-1.125-.235-3.156-.463-5.582C15.92,11.335,14.75.544,14.75.544L14.692,0,0,6.3l.059.318.4-.073.158.372L14.507.959l-.16-.372-.4.045s.032.3.091.832c.2,1.868.7,6.592,1.184,11.337.241,2.371.475,4.749.662,6.774s.326,3.7.378,4.66a3.92,3.92,0,0,0,.243,1.08,13.763,13.763,0,0,0,1.285,2.495A57.116,57.116,0,0,0,21.8,33.272c4.722,5.817,10.772,12.007,10.776,12.013L32.869,45l-.356-.192s-.014.026-.047.083c-.229.415-1.291,2.311-2.574,4.178a23.585,23.585,0,0,1-2.005,2.586,8.3,8.3,0,0,1-.959.911,2.617,2.617,0,0,1-.793.457l.119.388-.115-.388a.212.212,0,0,1-.047,0,1.054,1.054,0,0,1-.241-.038,4.978,4.978,0,0,1-.874-.348A23.558,23.558,0,0,1,22.394,51.1,95.758,95.758,0,0,1,9.21,40.034a50.757,50.757,0,0,1-5.5-6.392A17.143,17.143,0,0,1,2.078,30.85,5.666,5.666,0,0,1,1.5,28.618a2.357,2.357,0,0,1,.1-.7,24.045,24.045,0,0,0,.739-6.628A80.826,80.826,0,0,0,1.6,11.313C1.226,8.466.856,6.473.854,6.467l-.4.075.158.372L.457,6.541" transform="translate(448.256 364.534)"/><path class="f" d="M.631,0,0,6.711S5.054,11.29,13.16,7.948l.894-6.4L.631,0" transform="translate(395.543 364.57)"/><path class="f" d="M0,3.264.736,9.9S11.422,11.151,13.791,6.58L13.212,0,0,3.264" transform="translate(449.579 370.123)"/><path class="b" d="M2.015.541s16.045,17.9,21.431,20.165c0,0,2.835,1.182,9.214-3.875,0,0,.425-.33,2.363,1.465s10.157,8.6,7.606,12.757S29.4,35.494,20.611,27.274,4.265,13.288,1.052,11.87c0,0-1.182-.283-1.04-2.078s-.059-12.263,2-9.251" transform="translate(447.661 391.003)"/><path d="M2.42.945l-.3.271s4.016,4.48,8.708,9.245c2.347,2.384,4.862,4.838,7.136,6.845,1.137,1,2.214,1.9,3.181,2.612A13.264,13.264,0,0,0,23.7,21.482l0,0a2.907,2.907,0,0,0,1.04.15,8.442,8.442,0,0,0,3.169-.734,23.1,23.1,0,0,0,5.41-3.347l0,0-.2-.253.1.306a.326.326,0,0,0,.1-.053l-.2-.253.1.306-.061-.18.03.188.03-.008-.061-.18.03.188-.01-.063v.063h.01l-.01-.063v.063a1.182,1.182,0,0,1,.473.2A9.1,9.1,0,0,1,35.154,19c.427.4,1.139,1.018,1.971,1.8a34.343,34.343,0,0,1,3.956,4.269,13.365,13.365,0,0,1,1.471,2.39,5.478,5.478,0,0,1,.567,2.234,2.937,2.937,0,0,1-.427,1.56,5.066,5.066,0,0,1-2.46,1.926,10.978,10.978,0,0,1-4.138.726c-4.277,0-9.84-1.876-14.8-6.517-4.4-4.118-8.5-7.622-11.9-10.277-1.7-1.327-3.229-2.442-4.536-3.318A23.086,23.086,0,0,0,1.619,11.9l-.032-.014-.036-.008-.061.255.067-.253-.006,0-.061.255.067-.253,0,.016,0-.016,0,.016,0-.016a.931.931,0,0,1-.378-.253,1.242,1.242,0,0,1-.249-.407,2.069,2.069,0,0,1-.119-.739c0-.081,0-.166.01-.257.018-.212.028-.516.038-.892C.9,8.017.927,5.8,1.091,3.913a14.9,14.9,0,0,1,.36-2.379A2.352,2.352,0,0,1,1.7.9.4.4,0,0,1,1.776.8l0,0L1.75.745V.807L1.781.8,1.75.745V.757L1.738.807H1.75V.757L1.738.807a.3.3,0,0,1,.107.077,1.535,1.535,0,0,1,.239.289L2.1,1.2l.018.02.3-.271L2.754.716a2.27,2.27,0,0,0-.443-.5A1.069,1.069,0,0,0,2.054.063.764.764,0,0,0,1.477.051a.929.929,0,0,0-.38.3A2.541,2.541,0,0,0,.7,1.2,13.015,13.015,0,0,0,.326,3.407C.2,4.682.136,6.141.1,7.4.081,8.031.069,8.609.057,9.089S.03,9.947.014,10.163C0,10.275,0,10.382,0,10.485a2.853,2.853,0,0,0,.194,1.082,1.935,1.935,0,0,0,.7.88,1.5,1.5,0,0,0,.465.221l.1-.395-.164.37a22.426,22.426,0,0,1,3.114,1.815A143.648,143.648,0,0,1,20.741,27.973c5.1,4.773,10.843,6.734,15.351,6.736a11.762,11.762,0,0,0,4.445-.787,5.859,5.859,0,0,0,2.843-2.252,3.747,3.747,0,0,0,.546-1.983,7.115,7.115,0,0,0-1.082-3.428,24.316,24.316,0,0,0-3.83-4.765c-.694-.7-1.366-1.325-1.942-1.851s-1.06-.953-1.37-1.24a9.823,9.823,0,0,0-1.641-1.289,1.82,1.82,0,0,0-.882-.308.583.583,0,0,0-.362.111h0A22.224,22.224,0,0,1,27.6,20.151a7.624,7.624,0,0,1-2.859.674,3.019,3.019,0,0,1-.587-.051,1.15,1.15,0,0,1-.125-.032L24,20.735v0l-.091.233.1-.231,0,0-.091.233.1-.231,0,0a12.669,12.669,0,0,1-2.384-1.471A67.058,67.058,0,0,1,15.881,14.3c-3.128-2.962-6.42-6.369-8.927-9.034C5.7,3.931,4.64,2.784,3.895,1.969c-.372-.407-.666-.73-.866-.953s-.308-.34-.31-.34l-.3.269L2.754.716,2.42.945" transform="translate(447.256 390.599)"/><path class="g" d="M10.209.823S3.738,8.466,5.458,16.014C7.542,25.16-1.46,31.443.207,32.079s6.918,1.829,6.918,1.829,2.792,12.685,7.043,12.924,16-4.295,16-4.295l2.875,11.81,14.5-4.533L43.3,29.892S28.38-5.817,10.209.823" transform="translate(352.225 9.804)"/><path d="M10.614,1.228,10.307.967A25.1,25.1,0,0,0,7.739,4.835a19.224,19.224,0,0,0-2.572,8.936,12.342,12.342,0,0,0,.3,2.738A12,12,0,0,1,5.775,19.2,13.12,13.12,0,0,1,4.9,23.813,22.67,22.67,0,0,1,1.9,29.1c-.5.7-.959,1.288-1.3,1.783a6.471,6.471,0,0,0-.419.678,2.05,2.05,0,0,0-.129.309A1.077,1.077,0,0,0,0,32.2a.7.7,0,0,0,.125.408.739.739,0,0,0,.342.256c.443.168,1.089.363,1.821.566,2.2.608,5.149,1.279,5.153,1.279l.089-.395-.395.087a50.548,50.548,0,0,0,1.944,6.43,21.5,21.5,0,0,0,2.268,4.519,7.179,7.179,0,0,0,1.457,1.585,3.167,3.167,0,0,0,1.746.707q.176.01.364.01a20.71,20.71,0,0,0,4.441-.684c2.541-.61,5.378-1.521,7.584-2.28s3.78-1.365,3.782-1.367l-.144-.378-.395.1,2.978,12.229L48.429,50.5l-4.336-20.32-.014-.034a93.723,93.723,0,0,0-8.29-15.019,50.007,50.007,0,0,0-9.133-10.36,23.732,23.732,0,0,0-5.487-3.444A14.948,14.948,0,0,0,15.175,0a13.6,13.6,0,0,0-4.7.848l-.1.037-.069.082.308.261.14.38a12.791,12.791,0,0,1,4.421-.8A14.139,14.139,0,0,1,20.845,2.06,28.042,28.042,0,0,1,29.8,8.848a72.417,72.417,0,0,1,9.833,14.1c1.182,2.153,2.108,4.032,2.738,5.371.316.669.556,1.2.718,1.571.081.183.142.325.182.42l.047.108c.01.024.014.035.014.035l.374-.156-.4.084,4.174,19.562L33.745,54.238,30.862,42.4l-.429.166-.125.048c-.617.235-3.44,1.3-6.628,2.3-1.592.5-3.278.985-4.822,1.344a18.983,18.983,0,0,1-3.941.588c-.113,0-.219,0-.32-.008a2.374,2.374,0,0,1-1.3-.541,8.961,8.961,0,0,1-2.179-2.882,34.737,34.737,0,0,1-2.345-6c-.275-.915-.488-1.712-.631-2.279-.071-.283-.125-.51-.162-.665-.018-.077-.032-.137-.04-.177s-.014-.059-.014-.059l-.055-.251-.251-.057-.227-.052c-.512-.118-1.819-.423-3.175-.766-.68-.172-1.37-.354-1.981-.526S1.1,32.237.757,32.106l-.006,0-.032.062.047-.052L.751,32.1l-.032.062.047-.052-.1.108L.8,32.168a.126.126,0,0,0-.036-.054l-.1.108L.8,32.168l-.109.044.117-.02L.8,32.168l-.109.044.117-.02L.747,32.2.809,32.2v-.006L.747,32.2.809,32.2h0a.538.538,0,0,1,.036-.133,3.974,3.974,0,0,1,.386-.665c.338-.5.842-1.151,1.408-1.935a24.955,24.955,0,0,0,2.6-4.372,14.34,14.34,0,0,0,1.339-5.9,12.9,12.9,0,0,0-.326-2.867,11.5,11.5,0,0,1-.281-2.558A18.452,18.452,0,0,1,8.449,5.223,26.8,26.8,0,0,1,10.157,2.5c.231-.325.425-.579.558-.75l.156-.194c.018-.021.03-.038.04-.048l.01-.012,0,0-.31-.261.14.38-.14-.38" transform="translate(351.819 9.399)"/><path class="f" d="M0,1.8A22.364,22.364,0,0,0,6.264,9.015c4.168,3.022,9.678,15.924,12.429,14.095S1.513,0,1.513,0L0,1.8" transform="translate(362.087 9.804)"/><path class="f" d="M.128,10.159s7.225-.994,5.55-7.913,4.536,3.619,6.161,11.731,3.535,17.8,3.535,17.8A10.33,10.33,0,0,0,10.5,32.868S9.672,8.529,5.838,9.841s-6.461,2.267-5.71.318" transform="translate(383.852 28.065)"/><path d="M.573,4.392s1.2-.549,2.715-1.276S6.631,1.482,7.9.756a.4.4,0,1,0-.4-.7C6.265.759,4.444,1.663,2.938,2.386c-.755.362-1.431.679-1.916.906l-.577.267-.208.1a.4.4,0,1,0,.336.736" transform="translate(381.993 48.318)"/><path class="g" d="M9.952,2.446S3.144,8.486,1.671,10.59-.154,14.943.056,19.153s1.544,7.581,2.6,7.44,1.265-.7,1.265-.7a3.121,3.121,0,0,0,3.227,0S7.356,28,12.2,28c0,0,.983,6.036,3.3,4.913s1.544-6.667.844-8.632c0,0-.544-9.967.71-10.109s7.571.071,7.571.071L20.9,2.8S16.042-3.257,9.952,2.446" transform="translate(342.611 206.14)"/><path d="M10.358,2.851l-.269-.3s-1.706,1.511-3.6,3.29C5.546,6.728,4.555,7.683,3.7,8.551c-.427.435-.817.848-1.149,1.22a11.486,11.486,0,0,0-.809.993A8.709,8.709,0,0,0,.391,13.71,15.575,15.575,0,0,0,0,17.544c0,.627.02,1.3.057,2.033a19.655,19.655,0,0,0,.975,5.384,6.985,6.985,0,0,0,.828,1.694,2.274,2.274,0,0,0,.5.522,1.083,1.083,0,0,0,.639.229A.831.831,0,0,0,3.1,27.4l.01,0v0a2.343,2.343,0,0,0,1.236-.5,1.218,1.218,0,0,0,.352-.463L4.322,26.3l-.214.344a3.439,3.439,0,0,0,.565.269,3.813,3.813,0,0,0,1.356.259,3.06,3.06,0,0,0,1.75-.536L7.549,26.3l-.4.04a1.5,1.5,0,0,0,.148.465,2.926,2.926,0,0,0,1.4,1.3,8.808,8.808,0,0,0,3.907.708v-.4l-.4.065a16.9,16.9,0,0,0,.668,2.6,7.3,7.3,0,0,0,.906,1.841,2.727,2.727,0,0,0,.668.67,1.607,1.607,0,0,0,.892.285,1.7,1.7,0,0,0,.739-.18h0a2.44,2.44,0,0,0,.884-.743,4.324,4.324,0,0,0,.7-1.673,9.53,9.53,0,0,0,.192-2.011,16.281,16.281,0,0,0-.231-2.645,12.647,12.647,0,0,0-.5-2.062l-.38.138.4-.022s0-.034,0-.1c-.022-.439-.111-2.333-.111-4.348a35.621,35.621,0,0,1,.158-3.749,6.592,6.592,0,0,1,.235-1.226,1.055,1.055,0,0,1,.125-.269l.014-.018,0,0-.049-.055.032.065.016-.01-.049-.055.032.065-.067-.14.016.154a.151.151,0,0,0,.051-.014l-.067-.14.016.154c.134-.014.364-.028.652-.034s.633-.012,1.016-.012c1.147,0,2.61.03,3.784.061.589.014,1.1.028,1.473.04s.589.018.589.018l.577.018L21.668,3.009l-.047-.057A8.612,8.612,0,0,0,20,1.475,8.377,8.377,0,0,0,18.143.465,6.73,6.73,0,0,0,15.707,0a6.808,6.808,0,0,0-2.7.571A10.228,10.228,0,0,0,10.08,2.555l.277.3-.269-.3.269.3.275.3a9.376,9.376,0,0,1,2.7-1.831,5.823,5.823,0,0,1,4.522-.1,7.966,7.966,0,0,1,2.3,1.406,8.44,8.44,0,0,1,.627.6c.071.077.125.136.16.176l.038.047.01.01v0l.036-.028-.036.028.036-.028-.036.028.316-.253-.384.125,3.721,11.44.384-.125.012-.4s-3.553-.119-5.872-.119c-.386,0-.739,0-1.038.012s-.54.02-.718.04a.678.678,0,0,0-.3.113,1.033,1.033,0,0,0-.328.4,3.781,3.781,0,0,0-.289.979,16.754,16.754,0,0,0-.212,2.086c-.04.785-.055,1.635-.055,2.462,0,2.329.117,4.482.117,4.486l0,.059.02.057a11.725,11.725,0,0,1,.467,1.922,15.477,15.477,0,0,1,.221,2.511,7.71,7.71,0,0,1-.316,2.363,3.016,3.016,0,0,1-.419.836,1.647,1.647,0,0,1-.591.5h0a.886.886,0,0,1-.388.1A.782.782,0,0,1,14.9,32.9a1.887,1.887,0,0,1-.409-.4,5.122,5.122,0,0,1-.647-1.172,13.586,13.586,0,0,1-.635-2.011c-.069-.291-.119-.538-.154-.712-.018-.085-.03-.154-.038-.2,0-.024-.006-.04-.008-.053l0-.016L12.947,28H12.6a10.169,10.169,0,0,1-2.723-.314,3.144,3.144,0,0,1-1.689-.971,1.287,1.287,0,0,1-.208-.36.662.662,0,0,1-.028-.091l0-.014-.16.024.16-.016v-.008l-.16.024.16-.016-.067-.676-.562.382a2.265,2.265,0,0,1-1.295.4,3.052,3.052,0,0,1-1.068-.208c-.138-.053-.247-.105-.32-.142l-.083-.045-.018-.012,0,0-.063.1.065-.1,0,0-.063.1.065-.1-.421-.263-.172.463.249.1-.245-.107,0,.012.249.1-.245-.107.038.016-.038-.018v0l.038.016-.038-.018a.56.56,0,0,1-.176.186A1.611,1.611,0,0,1,3,26.6l.053.4-.045-.4-.018,0a.3.3,0,0,1-.162-.073,1.418,1.418,0,0,1-.273-.283,4.784,4.784,0,0,1-.554-1.008,13.382,13.382,0,0,1-.734-2.462,21.013,21.013,0,0,1-.4-3.233C.83,18.815.809,18.153.809,17.544a14.783,14.783,0,0,1,.366-3.636,7.916,7.916,0,0,1,1.232-2.681,10.268,10.268,0,0,1,.749-.917c1.125-1.263,3-3.059,4.583-4.53.793-.736,1.515-1.394,2.04-1.866.261-.237.473-.427.619-.558l.227-.2.006,0,0,0-.275-.3" transform="translate(342.206 205.736)"/><path class="g" d="M32.6,6.294s6.353,2.09,11.932-1.174S51.2.33,51.2.33s.662-.895,1.119.263S55.2,10.173,57.868,10.7s25.512,3.369,30.706,8.843,9.985,67.1-1.3,76.328c-2.315,1.894-9.459,3.312-9.459,3.312l-65.6,55.328s-7.369-1.685-12.211,0c0,0,4.211-58.535,3.158-66.538S-.423,16.28,16.423,14.174s14.948-3.79,14.791-7.159c0,0-.37-1.653,1.386-.721" transform="translate(351.301 54.429)"/><path d="M33.049,6.7l-.127.384a17.1,17.1,0,0,0,4.874.679,14.563,14.563,0,0,0,7.389-1.888c5.607-3.281,6.74-4.829,6.8-4.9L51.654.735l.324.241L51.852.882l.123.1,0,0L51.852.882l.123.1A.78.78,0,0,1,52.085.87a.36.36,0,0,1,.079-.051L52.186.81h.006V.792l-.008.016h.008V.792l-.008.016s.02.007.061.056a1.081,1.081,0,0,1,.152.282c.049.126.138.385.251.726a53.025,53.025,0,0,0,2.088,5.449A15.313,15.313,0,0,0,56.3,10.03a5.4,5.4,0,0,0,.9.955,2.455,2.455,0,0,0,1.038.517c.35.069,1,.17,1.888.309,3.116.485,9.178,1.421,15.017,2.83a65.21,65.21,0,0,1,8.186,2.466,24.57,24.57,0,0,1,3.2,1.491,9.534,9.534,0,0,1,2.2,1.629,5.813,5.813,0,0,1,.979,1.764,38.71,38.71,0,0,1,1.716,6.441,191.538,191.538,0,0,1,2.79,33.5,127.25,127.25,0,0,1-1.54,21.342,40.976,40.976,0,0,1-2.108,7.907,11.783,11.783,0,0,1-3.1,4.779,9.54,9.54,0,0,1-2.351,1.254,37.62,37.62,0,0,1-4.571,1.431c-.684.172-1.275.31-1.7.4-.21.047-.376.081-.492.105l-.129.026-.045.01-.1.02L12.4,154.607l.261.31.091-.395a35.14,35.14,0,0,0-6.985-.759,16.926,16.926,0,0,0-5.451.771l.134.382.4.028s.832-11.563,1.663-25.116S4.18,100.741,4.18,92.769c0-1-.012-1.878-.04-2.622s-.071-1.356-.132-1.821c-.158-1.2-.354-3.731-.51-7.138s-.271-7.707-.271-12.466c0-10.776.593-23.932,2.636-34.542A48.428,48.428,0,0,1,10.1,20.811a14.444,14.444,0,0,1,3.078-4.067,6.942,6.942,0,0,1,3.741-1.764c3.347-.418,5.959-.82,8-1.224a32.056,32.056,0,0,0,3.7-.921A6.685,6.685,0,0,0,31.5,11.273a2.526,2.526,0,0,0,.567-.955,3.188,3.188,0,0,0,.142-1c0-.622-.109-1.245-.14-1.912l0-.035-.008-.035-.022,0,.022,0h0l-.022,0,.022,0a1.469,1.469,0,0,1-.022-.237.717.717,0,0,1,.014-.153.216.216,0,0,1,.04-.107l.012-.007a.2.2,0,0,1,.071-.01,1.638,1.638,0,0,1,.686.238l.03.016.032.011.127-.384.19-.357a2.354,2.354,0,0,0-1.066-.332.967.967,0,0,0-.478.118.858.858,0,0,0-.255.225,1.05,1.05,0,0,0-.178.393,1.594,1.594,0,0,0-.036.35,1.951,1.951,0,0,0,.042.414l.395-.088-.4.019c.036.727.142,1.353.14,1.875a2.548,2.548,0,0,1-.079.679,1.693,1.693,0,0,1-.239.515,3.062,3.062,0,0,1-1.113.9,17.4,17.4,0,0,1-4.348,1.377c-2.114.457-4.969.913-8.8,1.392a7.753,7.753,0,0,0-4.174,1.957c-2.155,1.884-3.838,4.932-5.186,8.731-2.019,5.7-3.276,13.113-4.033,20.879S2.418,61.63,2.418,68.722c0,4.771.115,9.079.271,12.5s.352,5.957.516,7.209c.057.423.1,1.014.125,1.744s.04,1.6.04,2.592c0,7.925-.832,23.465-1.663,37.009-.415,6.774-.832,13.053-1.143,17.635-.156,2.292-.285,4.16-.376,5.455-.047.647-.081,1.153-.105,1.5s-.038.522-.038.524L0,155.5l.581-.2a16.154,16.154,0,0,1,5.186-.726,33.157,33.157,0,0,1,4.745.37c.629.091,1.145.184,1.505.253l.413.085c.047.01.083.016.107.022l.034.008.2.045L78.526,99.9l-.261-.31.079.4c.006,0,1.8-.358,3.893-.953a32.8,32.8,0,0,0,3.183-1.064,10.171,10.171,0,0,0,2.562-1.378,12.531,12.531,0,0,0,3.336-5.1,52.432,52.432,0,0,0,2.859-12.937,147.2,147.2,0,0,0,.848-16.614,211.942,211.942,0,0,0-1.73-27.018,91.053,91.053,0,0,0-1.8-9.9,27.183,27.183,0,0,0-1.036-3.326,6.5,6.5,0,0,0-1.143-2.021,11.046,11.046,0,0,0-2.8-2.008,39.631,39.631,0,0,0-7.454-2.827,129.083,129.083,0,0,0-12.864-2.85c-1.946-.342-3.68-.619-5.04-.831-.678-.106-1.263-.2-1.73-.271s-.821-.133-1.028-.174a1.783,1.783,0,0,1-.8-.445,7.977,7.977,0,0,1-1.522-2.079,32.488,32.488,0,0,1-1.9-4.373c-.253-.7-.471-1.339-.643-1.852-.087-.257-.162-.482-.225-.668s-.115-.333-.158-.441a1.646,1.646,0,0,0-.388-.616A.894.894,0,0,0,52.49.058a.793.793,0,0,0-.3-.058.888.888,0,0,0-.384.092,1.28,1.28,0,0,0-.346.251,1.329,1.329,0,0,0-.134.151l0,.005.121.086L51.326.5l0,0,.121.086L51.326.5c-.016.023-1.169,1.534-6.55,4.679A13.76,13.76,0,0,1,37.8,6.953a17.537,17.537,0,0,1-3.324-.322c-.413-.08-.739-.161-.961-.22-.111-.03-.2-.054-.253-.071l-.065-.019-.014,0h0l-.125.384.19-.357-.19.357" transform="translate(350.852 54.024)"/><path class="f" d="M45.657,0S41.622,6.583,40.92,11.356,38.533,31.5,36.639,32.271s-36.287,0-36.287,0L0,42.1s42.535,3.019,44.429-7.159S48.5.758,48.5.758L45.657,0" transform="translate(372.495 67.039)"/><path class="f" d="M6.378,0S-1.286,23.546.189,40.811s.56,87.172.56,87.172,4.2,1.228,5.629.384S14.251,13.2,6.378,0" transform="translate(360.798 80.116)"/><path class="c" d="M4.851.383a53.112,53.112,0,0,0,6.317,0s1.052-.684,0,2.737S9.378,28.44,9.483,33.6c0,0,22.214,5.421,40.111,0,0,0,2.094-27.854,8.1-33.273,0,0-.152-1.1,7.322.74,0,0-6.843,11.2-5.1,34.94a159.984,159.984,0,0,1-1.107,29.7l-31.267,3v1.265l-24,1.263A141.863,141.863,0,0,0,.691,52.759C-2.1,41.126,4.429,32.651,4.851.383" transform="translate(362.873 66.746)"/><path d="M5.255.788l-.032.4c.008,0,1.176.091,3.059.091.943,0,2.064-.022,3.31-.09l.109-.006.091-.059-.1-.15.085.157.012-.007-.1-.15.085.157h0l-.024-.1v.1l.024,0-.024-.1V.952l-.083.164a.184.184,0,0,0,.083.021V.952l-.083.164.079-.158-.136.115a.18.18,0,0,0,.057.043l.079-.158-.136.115L11.7,1l-.089.058.008.012L11.7,1l-.089.058.03-.02-.032.016,0,0,.03-.02-.032.016a.741.741,0,0,1,.028.237,4.151,4.151,0,0,1-.1.76,13.589,13.589,0,0,1-.356,1.352,13.825,13.825,0,0,0-.37,1.969c-.2,1.5-.384,3.6-.546,5.993-.49,7.182-.8,17.045-.8,21.453,0,.459,0,.858.01,1.192l.006.31.3.075a102.783,102.783,0,0,0,21.852,2.42,64.559,64.559,0,0,0,18.471-2.426l.265-.081.022-.275s.008-.107.024-.312c.125-1.533.736-8.494,2.015-15.692a79.913,79.913,0,0,1,2.44-10.315A28.021,28.021,0,0,1,56.5,3.665a9.2,9.2,0,0,1,1.866-2.632l.164-.149L58.5.665l-.368.062H58.5A.3.3,0,0,0,58.5.665l-.368.062h.1l.237.151A.3.3,0,0,0,58.5.727h-.277l.237.151-.15-.1.125.125.024-.03-.15-.1.125.125L58.39.86l.038.055.01-.007L58.39.86l.038.055A.562.562,0,0,1,58.6.858a3.091,3.091,0,0,1,.615-.049,28.705,28.705,0,0,1,6.1,1.056l.1-.393-.346-.211c-.032.053-5.447,8.95-5.447,27.605,0,2.368.087,4.893.283,7.576.208,2.841.291,5.712.291,8.488,0,5.671-.348,10.956-.7,14.821-.174,1.932-.348,3.511-.478,4.6-.067.548-.121.973-.158,1.263-.02.144-.034.255-.045.328s-.016.111-.016.111l.4.057-.038-.4L27.538,68.747v1.246L3.917,71.236l.02.4.4-.032A142.637,142.637,0,0,0,1.489,53.071,24.7,24.7,0,0,1,.809,47.2a47.419,47.419,0,0,1,.7-7.4c.637-4.053,1.611-8.809,2.454-15.048A194.816,194.816,0,0,0,5.659.793l-.4-.005-.032.4.032-.4L4.85.783A189.3,189.3,0,0,1,2.3,30.4c-.583,3.546-1.155,6.559-1.586,9.278A48.506,48.506,0,0,0,0,47.2a25.592,25.592,0,0,0,.7,6.06A121.491,121.491,0,0,1,2.879,65.64c.227,1.774.391,3.284.5,4.35.055.532.093.953.119,1.242.012.144.022.255.028.33s.01.111.01.111l.03.393,24.782-1.305V69.482l31.218-3,.045-.314a168.682,168.682,0,0,0,1.4-21.241c0-2.792-.083-5.682-.293-8.547-.194-2.665-.281-5.17-.281-7.518A72.2,72.2,0,0,1,63.114,8.319a39.677,39.677,0,0,1,1.833-5.012c.249-.551.455-.96.6-1.23.073-.135.127-.235.166-.3.018-.033.032-.057.042-.073l.01-.017,0,0,.287-.472-.536-.132A29.284,29.284,0,0,0,59.219,0a2.546,2.546,0,0,0-1.153.192.724.724,0,0,0-.285.25.518.518,0,0,0-.087.286A.355.355,0,0,0,57.7.8l.4-.067-.271-.3a10.379,10.379,0,0,0-2.165,3.107,42.351,42.351,0,0,0-2.839,8.6,138.957,138.957,0,0,0-2.487,14.6c-.516,4.23-.743,7.233-.743,7.24L50,34l-.117-.388a63.678,63.678,0,0,1-18.236,2.392,103.038,103.038,0,0,1-15.274-1.2c-1.969-.3-3.569-.6-4.674-.824-.552-.113-.981-.206-1.273-.271l-.33-.077c-.036-.008-.065-.014-.083-.02l-.028-.006-.1.395.4-.01c-.006-.324-.01-.718-.01-1.174,0-3.334.178-9.857.478-15.937.15-3.04.33-5.971.534-8.337.1-1.183.21-2.224.324-3.065a12.723,12.723,0,0,1,.342-1.839c.178-.58.3-1.048.374-1.431a4.752,4.752,0,0,0,.111-.919,1.723,1.723,0,0,0-.036-.37,1.023,1.023,0,0,0-.081-.236.689.689,0,0,0-.253-.275.623.623,0,0,0-.318-.086.744.744,0,0,0-.285.059.887.887,0,0,0-.121.063l.223.339-.022-.4C10.319.45,9.212.473,8.282.473S6.6.451,6.084.428C5.825.417,5.625.406,5.489.4L5.336.388l-.051,0L4.854.351l0,.431.4.005" transform="translate(362.47 66.341)"/><path class="c" d="M120.919,222.636C106.6,234.43,70.175,230,70.175,230l-6.106-32.424v25.478s-5.265,1.263-32-1.265S.271,216.952.271,216.952C-2.469,189.158,16.482,8.444,16.482,8.444c.022-.024.045-.051.067-.073C27.125-3.449,37.539.709,37.539.709l.421,1.473C64.221,9.515,75.29,8.776,75.553,8.758h.006c.016,9,7.46,22.269,7.46,22.269,18.528,32.428,37.9,191.609,37.9,191.609" transform="translate(353.557 144.854)"/><path d="M121.324,223.041l-.257-.312c-4,3.3-9.84,5.338-16.138,6.531a103.7,103.7,0,0,1-18.88,1.558c-4.376,0-8.233-.2-10.995-.4-1.382-.1-2.489-.2-3.252-.279-.38-.038-.674-.069-.872-.091l-.227-.026-.075-.008-.049.4.4-.075-6.106-32.424-.8.075v25.478h.4l-.1-.393.057.233-.055-.235,0,0,.057.233-.055-.235-.014,0a34.1,34.1,0,0,1-5.862.3c-4.638,0-12.63-.316-26-1.578s-21.3-2.471-25.887-3.363c-2.292-.445-3.749-.811-4.625-1.064-.439-.125-.732-.225-.915-.289-.091-.032-.152-.057-.19-.071C.87,217,.858,217,.85,216.994l-.008,0-.063.14.065-.14h0l-.063.14.065-.14-.168.368.4-.04c-.184-1.849-.269-4.409-.269-7.559,0-10.91,1.028-28.932,2.574-49.811C5.7,128.626,9.178,90.86,12.075,60.927c1.447-14.967,2.752-27.975,3.693-37.242.471-4.633.852-8.332,1.115-10.871.129-1.271.233-2.25.3-2.914s.105-1.006.105-1.008l-.4-.042.3.273c.032-.034.049-.055.053-.059l.01-.01.006-.008a25.824,25.824,0,0,1,8.872-6.687A18.02,18.02,0,0,1,33.337.809a15.161,15.161,0,0,1,3.276.346c.386.085.686.17.886.235.1.03.176.057.227.075.024.008.042.016.053.02l.012,0,0,0,.03-.081-.032.079,0,0,.03-.081-.032.079.152-.374-.391.111.486,1.692.216.061C59.927,9.028,71.289,9.6,74.793,9.6c.747,0,1.141-.026,1.192-.03l-.026-.4v.4h.006v-.4h-.4a28.469,28.469,0,0,0,1.188,7.383,79.262,79.262,0,0,0,6.325,15.084v0c2.29,4,4.617,10.02,6.914,17.461,4.022,13.022,7.97,30.417,11.626,49.173,5.483,28.137,10.311,59.345,13.769,83.516,1.728,12.085,3.114,22.413,4.067,29.717.475,3.654.846,6.55,1.095,8.534.125.991.219,1.756.283,2.27s.1.783.1.783l.4-.049-.257-.312.257.312.4-.049s-4.844-39.8-12-83.661c-3.581-21.929-7.739-44.872-12.164-64.369-2.212-9.748-4.49-18.635-6.8-26.105s-4.642-13.524-6.983-17.625l0,0s-.008-.012-.022-.038A85.115,85.115,0,0,1,79.9,23.1a60.6,60.6,0,0,1-2.438-7,27.271,27.271,0,0,1-1.093-6.934l0-.4h-.433c-.042,0-.411.028-1.141.028-3.417,0-14.706-.554-36.319-6.588l-.109.388.391-.111L38.278.811,38.094.739A13.922,13.922,0,0,0,33.337,0,18.825,18.825,0,0,0,25.8,1.619a26.6,26.6,0,0,0-9.152,6.889l.3.269-.287-.285c-.04.04-.065.071-.079.087l-.089.1-.014.132s-4.122,39.3-8.241,84.06C6.181,115.25,4.122,139,2.576,159.887S0,198.8,0,209.758c0,3.167.085,5.742.271,7.64l.024.231.21.1a32.213,32.213,0,0,0,5.961,1.5c4.625.9,12.585,2.108,25.966,3.373s21.4,1.582,26.073,1.582a31.833,31.833,0,0,0,6.064-.328l.31-.073V202.322l5.36,28.454.293.036a143.293,143.293,0,0,0,15.517.815,104.573,104.573,0,0,0,19.032-1.572c6.372-1.212,12.322-3.266,16.5-6.7l.172-.142-.026-.221-.4.049" transform="translate(353.152 144.449)"/><path class="h" d="M19.426,6.919A140.189,140.189,0,0,0,0,14.919S.1,11.6.132,8.372C10.708-3.449,21.122.709,21.122.709l.421,1.473C47.8,9.515,58.873,8.776,59.136,8.758a2.86,2.86,0,0,1-.37.425A17.779,17.779,0,0,0,60.1,16.8c1.685,4.316-28.988-13.771-40.673-9.878" transform="translate(369.974 144.854)"/><path class="g" d="M43.9,9.086a6.983,6.983,0,0,0-4.983,1.123,47.223,47.223,0,0,1-13.055,5.967s-4,4.281-4.7,5.9-5.123,4.561-6.246,4.421-2.246-1.263-.352-2.667S20.6,19.473,21.3,15.684c0,0-1.333-.14-6.6,2.808s-9.125,5.334-11.09,3.017c0,0-.631-.913.913-1.894,0,0-4.492,1.052-3.931-2.6,0,0,7.511-4.281,9.194-5.9,0,0-7.44,3.158-9.755.142,0,0-.421-.913,1.754-1.333S13.974,4.454,16.268,2.771s3.978-3,15-2.738,11.95.21,11.95.21L43.9,9.086" transform="translate(347.197 136.476)"/><path d="M44.305,9.492l.1-.393A4.761,4.761,0,0,0,43.34,9a8.079,8.079,0,0,0-4.231,1.273c-1.374.846-2.865,1.8-4.89,2.808a50.213,50.213,0,0,1-8.069,3.114l-.1.032-.075.079s-1.006,1.076-2.1,2.357c-.548.639-1.117,1.331-1.6,1.969-.241.32-.461.627-.643.908a5.65,5.65,0,0,0-.437.777,2.462,2.462,0,0,1-.354.55,9.124,9.124,0,0,1-1.232,1.21,17.688,17.688,0,0,1-2.448,1.7,9.052,9.052,0,0,1-1.085.538,3.479,3.479,0,0,1-.413.142,1,1,0,0,1-.259.04l-.038,0-.045.4.049-.4a1.547,1.547,0,0,1-.739-.3.829.829,0,0,1-.208-.239.548.548,0,0,1-.069-.257.878.878,0,0,1,.166-.467,2.833,2.833,0,0,1,.69-.68,31.552,31.552,0,0,0,3.865-3.219,13.788,13.788,0,0,0,1.894-2.361A8.219,8.219,0,0,0,22.1,16.165l.079-.427-.431-.051a.787.787,0,0,0-.079,0,5.433,5.433,0,0,0-1.7.419,35.449,35.449,0,0,0-5.058,2.44c-1.9,1.062-3.6,2.046-5.087,2.758a16.032,16.032,0,0,1-2.052.84,5.638,5.638,0,0,1-1.659.3,2.482,2.482,0,0,1-1-.188,2.146,2.146,0,0,1-.791-.6l-.308.261.332-.231-.162.113.168-.105-.006-.008-.162.113.168-.105-.01-.016a.544.544,0,0,1-.051-.239.771.771,0,0,1,.138-.423,2.255,2.255,0,0,1,.714-.654l2.011-1.279-2.321.544a6.122,6.122,0,0,1-1.244.129,4.179,4.179,0,0,1-.821-.075,1.917,1.917,0,0,1-1-.482,1.342,1.342,0,0,1-.3-.461,2.039,2.039,0,0,1-.117-.718,3.513,3.513,0,0,1,.045-.534L1,17.423l.2.352S3.082,16.7,5.176,15.426c1.048-.637,2.147-1.325,3.1-1.959.475-.318.911-.621,1.285-.9a9.858,9.858,0,0,0,.919-.749l1.592-1.528-2.031.862-.008,0A21.172,21.172,0,0,1,7.9,11.9a15.029,15.029,0,0,1-4.031.674A5.581,5.581,0,0,1,2.044,12.3a2.665,2.665,0,0,1-1.285-.882l-.32.247.366-.17-.212.1.221-.079L.805,11.5l-.212.1.221-.079-.03.01.03-.008v0l-.03.01.03-.008,0-.034A.253.253,0,0,1,.832,11.4a.725.725,0,0,1,.312-.291,3.622,3.622,0,0,1,1.127-.372,8.2,8.2,0,0,0,1.218-.378c.868-.324,2.007-.819,3.266-1.4C8.64,8.073,10.791,6.995,12.664,6c.935-.5,1.8-.981,2.531-1.406s1.319-.8,1.718-1.089a16.506,16.506,0,0,1,1.558-1.058,10.291,10.291,0,0,1,3.468-1.169A41.549,41.549,0,0,1,29.047.809q1.211,0,2.614.034c8,.188,10.683.212,11.559.212.334,0,.4,0,.419,0l-.018-.4-.4.03L43.9,9.524l.4-.032.1-.393-.1.393.4-.03L43.994.225,43.6.245l.012.269L43.6.245h0l.012.269L43.6.245h-.016c-.036,0-.136,0-.366,0-.862,0-3.545-.024-11.539-.212C30.737.012,29.863,0,29.047,0a33.048,33.048,0,0,0-8.769.824,9.72,9.72,0,0,0-2.207.919,16.991,16.991,0,0,0-1.637,1.107c-.269.2-.67.457-1.159.755-1.724,1.04-4.567,2.541-7.205,3.824-1.321.641-2.59,1.23-3.644,1.677-.528.223-1,.413-1.394.554a6.675,6.675,0,0,1-.915.277,3.588,3.588,0,0,0-1.667.672,1.291,1.291,0,0,0-.352.449,1.006,1.006,0,0,0-.1.427.893.893,0,0,0,.071.354l.018.04.028.036a3.469,3.469,0,0,0,1.659,1.153,6.4,6.4,0,0,0,2.09.31,16.018,16.018,0,0,0,4.374-.741,21.085,21.085,0,0,0,2.11-.739l-.158-.372-.279-.291a8.95,8.95,0,0,1-.84.684c-1.259.933-3.334,2.228-5.087,3.28-.878.528-1.675,1-2.254,1.333-.287.168-.522.3-.684.395L.8,17.071l-.17.1L.6,17.362a4.256,4.256,0,0,0-.055.658,2.614,2.614,0,0,0,.3,1.287,2.093,2.093,0,0,0,.556.647,2.789,2.789,0,0,0,1.082.494,4.851,4.851,0,0,0,1.107.117,6.807,6.807,0,0,0,1.428-.152l-.091-.393-.219-.342a3.055,3.055,0,0,0-.963.9,1.6,1.6,0,0,0-.263.858,1.38,1.38,0,0,0,.091.5,1.074,1.074,0,0,0,.107.212l.012.016.012.016A2.952,2.952,0,0,0,4.8,23a3.251,3.251,0,0,0,1.315.255,6.391,6.391,0,0,0,1.9-.338,21.326,21.326,0,0,0,3.339-1.477c1.216-.635,2.535-1.392,3.952-2.185a34.709,34.709,0,0,1,4.939-2.386,4.87,4.87,0,0,1,1.428-.37h0l.006-.206-.024.2.018,0,.006-.206-.024.2.047-.4-.4-.073a7.39,7.39,0,0,1-1.03,2.533,14.873,14.873,0,0,1-2.8,3.185c-1.024.908-2.04,1.643-2.752,2.171a3.65,3.65,0,0,0-.884.886,1.675,1.675,0,0,0-.3.913,1.327,1.327,0,0,0,.168.645,1.746,1.746,0,0,0,.672.658,2.412,2.412,0,0,0,.886.293h.006a1.225,1.225,0,0,0,.127.006,2.3,2.3,0,0,0,.724-.146,9.445,9.445,0,0,0,1.554-.751A18.44,18.44,0,0,0,20.235,24.6a10.457,10.457,0,0,0,1.036-1,3.867,3.867,0,0,0,.664-.967,4.618,4.618,0,0,1,.372-.658c.3-.457.714-1.012,1.169-1.58.684-.852,1.457-1.74,2.058-2.414.3-.336.558-.619.741-.817.091-.1.162-.178.212-.231l.075-.083-.3-.275.115.386a50.955,50.955,0,0,0,8.2-3.165c2.064-1.028,3.589-2,4.953-2.843A7.248,7.248,0,0,1,43.34,9.807a4.95,4.95,0,0,1,.656.04c.075.01.129.02.166.028l.038.008h.008v0l.055-.229-.057.227,0,0,.055-.229-.057.227.546.138-.045-.56-.4.03" transform="translate(346.791 136.07)"/><path d="M.617,9.38S3.163,7.8,5.906,5.924C7.28,4.985,8.7,3.975,9.89,3.049c.593-.463,1.127-.9,1.57-1.311a7.057,7.057,0,0,0,1.022-1.1.4.4,0,0,0-.668-.457,6.364,6.364,0,0,1-.9.967,36.252,36.252,0,0,1-2.92,2.323C6.275,4.72,4.322,6.029,2.8,7.023c-.761.5-1.414.915-1.876,1.208l-.54.342-.194.121a.4.4,0,1,0,.427.686" transform="translate(351.317 147.053)"/><path d="M.633,4.808S1.863,3.967,3.2,3.034c.668-.465,1.362-.953,1.942-1.368.291-.208.554-.4.771-.56S6.3.812,6.42.715A.4.4,0,0,0,5.9.094c-.093.077-.259.2-.471.362-.745.55-2.06,1.475-3.187,2.258-.565.391-1.08.749-1.457,1.008l-.447.308c-.105.073-.164.111-.164.111a.4.4,0,0,0,.457.668" transform="translate(356.58 143.122)"/><path d="M.533.789.411.427.5.8.533.789.411.427.5.8.409.411v.4A.437.437,0,0,0,.5.8L.409.411V.419L.237.769a.385.385,0,0,0,.172.04V.419L.237.769.4.433l-.316.2A.364.364,0,0,0,.237.769L.4.433l-.316.2L.29.5.051.563A.245.245,0,0,0,.086.635L.29.5.051.563S.059.611.065.674C.084.87.09,1.24.09,1.708.09,2.564.067,3.762.067,4.99c0,.991.014,2.005.065,2.885.026.441.061.85.107,1.208a5.229,5.229,0,0,0,.192.925c.314.939.522,1.667.652,2.161.065.245.109.433.138.556q.021.094.03.14l.008.034,0,.008a.4.4,0,0,0,.793-.158,27.616,27.616,0,0,0-.856-3,4.431,4.431,0,0,1-.156-.775A34.363,34.363,0,0,1,.877,4.99C.877,3.77.9,2.576.9,1.708c0-.4,0-.728-.018-.971A2.955,2.955,0,0,0,.848.423.7.7,0,0,0,.8.261.441.441,0,0,0,.709.128.374.374,0,0,0,.591.043.384.384,0,0,0,.409,0,.5.5,0,0,0,.276.02.405.405,0,0,0,.533.789" transform="translate(353.152 221.309)"/><path d="M.047.385S0,1.324,0,2.667A42.91,42.91,0,0,0,.237,7.408,17.837,17.837,0,0,0,.643,9.741a6.271,6.271,0,0,0,.732,1.833.4.4,0,0,0,.678-.439A5.571,5.571,0,0,1,1.428,9.54a20.665,20.665,0,0,1-.5-3.44C.836,4.879.809,3.659.809,2.667c0-.664.012-1.224.022-1.621C.838.85.844.694.848.587q0-.079.006-.121a.318.318,0,0,1,0-.04A.408.408,0,0,0,.471,0,.408.408,0,0,0,.047.385" transform="translate(348.041 220.678)"/><path d="M.253.351A34.123,34.123,0,0,0,0,3.981,10.393,10.393,0,0,0,.059,5.169a3.136,3.136,0,0,0,.231.953c.279.591.611,1.327.874,1.914.132.293.245.548.326.732l.129.291a.4.4,0,0,0,.741-.326S1.586,6.978,1.022,5.776a2.385,2.385,0,0,1-.16-.7,9.934,9.934,0,0,1-.053-1.1c0-.8.063-1.687.123-2.369.03-.34.063-.629.085-.834.012-.1.022-.184.028-.239s.01-.083.01-.083a.4.4,0,1,0-.8-.1" transform="translate(344.539 223.135)"/><path class="i" d="M25.162,144.443,0,0" transform="translate(392.464 197.992)"/><path d="M25.966,144.78.8.335a.4.4,0,1,0-.8.14L25.168,144.918a.4.4,0,0,0,.8-.138" transform="translate(392.059 197.586)"/><path d="M.042.582A60.639,60.639,0,0,0,7,11.008c4.573,5.58,11.343,11.93,20.165,14.959a.4.4,0,1,0,.263-.765c-8.611-2.952-15.286-9.192-19.8-14.708A65.193,65.193,0,0,1,2.5,3.285c-.575-.939-1.01-1.708-1.3-2.238C1.056.78.946.574.876.434.839.366.813.313.795.277L.774.238.768.226A.4.4,0,0,0,.042.582" transform="translate(415.852 166.635)"/><path class="d" d="M30.7,8.787A19.213,19.213,0,0,1,27.894,0H10.758A19.241,19.241,0,0,1,7.952,8.787C5.378,12.529,0,14.868,0,14.868H38.65s-5.378-2.339-7.95-6.08" transform="translate(236.43 150.102)"/><path d="M32.647,9.192l.332-.229a16.344,16.344,0,0,1-2.3-5.655c-.186-.848-.3-1.582-.356-2.1-.03-.259-.049-.465-.059-.607-.006-.071-.01-.123-.012-.16l0-.04V.386L30.227,0H12.318L12.3.386l0,.01a19.575,19.575,0,0,1-.463,3.071,16.2,16.2,0,0,1-2.27,5.5,16.808,16.808,0,0,1-4.824,4.33c-.819.518-1.562.923-2.1,1.2-.267.136-.484.239-.631.31-.075.034-.132.061-.17.077L1.8,14.9l-.014.006L0,15.677H42.543L40.758,14.9l-.012-.006a24.763,24.763,0,0,1-3.1-1.7,16.618,16.618,0,0,1-4.67-4.231l-.332.229-.334.229a17.564,17.564,0,0,0,5.056,4.557,25.362,25.362,0,0,0,3.067,1.667l.16-.372v-.4H1.946v.4l.162.372a25.615,25.615,0,0,0,3.065-1.667A17.564,17.564,0,0,0,10.23,9.421a17.117,17.117,0,0,0,2.43-5.939A19.945,19.945,0,0,0,13.107.423L12.7.4v.4H29.84V.4l-.4.018a19.946,19.946,0,0,0,.447,3.059,17.117,17.117,0,0,0,2.43,5.939l.334-.229" transform="translate(234.483 149.697)"/><path class="d" d="M169.6,109.931a5.614,5.614,0,0,1-5.613,5.613H5.613A5.614,5.614,0,0,1,0,109.931V5.613A5.613,5.613,0,0,1,5.613,0H163.986A5.613,5.613,0,0,1,169.6,5.613V109.931" transform="translate(170.711 37.434)"/><path d="M170,110.335h-.4a5.209,5.209,0,0,1-5.208,5.208H6.017a5.209,5.209,0,0,1-5.208-5.208V6.017A5.208,5.208,0,0,1,6.017.809H164.391A5.208,5.208,0,0,1,169.6,6.017V110.335h.809V6.017A6.018,6.018,0,0,0,164.391,0H6.017A6.018,6.018,0,0,0,0,6.017V110.335a6.02,6.02,0,0,0,6.017,6.017H164.391a6.02,6.02,0,0,0,6.017-6.017H170" transform="translate(170.307 37.029)"/><path class="g" d="M0,0V10.416a5.614,5.614,0,0,0,5.613,5.613H163.986a5.614,5.614,0,0,0,5.613-5.613V0H0" transform="translate(170.711 136.948)"/><path d="M.4.4H0V10.821a6.02,6.02,0,0,0,6.017,6.017H164.391a6.02,6.02,0,0,0,6.017-6.017V0H0V.4H.4v.4H169.6V10.821a5.209,5.209,0,0,1-5.208,5.208H6.017A5.209,5.209,0,0,1,.809,10.821V.4H.4v0" transform="translate(170.307 136.543)"/><path class="d" d="M41.636,4.342H.178A.178.178,0,0,1,0,4.166V.176A.178.178,0,0,1,.178,0H41.636a.176.176,0,0,1,.176.176v3.99a.176.176,0,0,1-.176.176" transform="translate(234.985 162.533)"/><path d="M42.041,4.747v-.4H.583v.229H.809a.229.229,0,0,0-.227-.229v.229H.809V.581H.583V.809A.228.228,0,0,0,.809.581H.583V.809H42.041V.581h-.229a.23.23,0,0,0,.229.229V.581h-.229v3.99h.229V4.342a.231.231,0,0,0-.229.229h.229v.581a.581.581,0,0,0,.581-.581V.581A.581.581,0,0,0,42.041,0H.583A.582.582,0,0,0,0,.581v3.99a.582.582,0,0,0,.583.581H42.041v-.4" transform="translate(234.58 162.129)"/><path class="g" d="M156.083,87.975H.688A.688.688,0,0,1,0,87.285V.689A.688.688,0,0,1,.688,0H156.083a.69.69,0,0,1,.69.689v86.6a.69.69,0,0,1-.69.69" transform="translate(176.862 43.075)"/><path d="M156.488,88.379v-.4H1.093a.285.285,0,0,1-.283-.285V1.094A.285.285,0,0,1,1.093.809H156.488a.285.285,0,0,1,.285.285v86.6a.285.285,0,0,1-.285.285v.809a1.094,1.094,0,0,0,1.095-1.095V1.094A1.094,1.094,0,0,0,156.488,0H1.093A1.094,1.094,0,0,0,0,1.094v86.6a1.094,1.094,0,0,0,1.093,1.095H156.488v-.4" transform="translate(176.458 42.671)"/><path class="f" d="M146.195,2.459A2.459,2.459,0,0,0,143.736,0H2.458A2.459,2.459,0,0,0,0,2.459V9.367H146.195V2.459" transform="translate(182.847 49.492)"/><path class="g" d="M0,0V63.317a2.458,2.458,0,0,0,2.458,2.458H143.736a2.458,2.458,0,0,0,2.458-2.458V0H0" transform="translate(182.847 58.859)"/><path class="b" d="M4.947,9.01H4.063A4.063,4.063,0,0,1,0,4.947V4.063A4.063,4.063,0,0,1,4.063,0h.884A4.063,4.063,0,0,1,9.01,4.063v.884A4.063,4.063,0,0,1,4.947,9.01" transform="translate(251.119 139.918)"/><path class="j" d="M0,1.073H59.011V0H0Z" transform="translate(241.233 77.61)"/><path class="f" d="M0,2.456H88.6V0H0Z" transform="translate(211.646 66.607)"/><path class="j" d="M0,1.073H59.189V0H0Z" transform="translate(241.055 80.947)"/><path class="j" d="M0,1.073H59.189V0H0Z" transform="translate(241.055 74.273)"/><path class="j" d="M0,1.073H59.189V0H0Z" transform="translate(241.055 84.283)"/><path class="j" d="M0,1.073H59.189V0H0Z" transform="translate(241.055 87.62)"/><path class="j" d="M0,1.073H59.189V0H0Z" transform="translate(241.055 90.956)"/><path class="j" d="M0,1.073H59.189V0H0Z" transform="translate(241.055 94.292)"/><path class="j" d="M0,1.073H59.189V0H0Z" transform="translate(241.055 97.629)"/><path class="j" d="M0,1.072H31.993V0H0Z" transform="translate(241.055 100.965)"/><path class="f" d="M26.158,45.187H.639A.641.641,0,0,1,0,44.547V.64A.64.64,0,0,1,.639,0H26.158A.639.639,0,0,1,26.8.64V44.547a.639.639,0,0,1-.639.639" transform="translate(211.694 74.235)"/><path class="b" d="M35.7,46.321S46.124,44.269,47.124,24.7c0,0-2.57-33.95-42.885-22.252A6.389,6.389,0,0,0,1.163,4.375C.036,5.686-.775,7.784,1.2,10.627a36.79,36.79,0,0,0,9.21,9.027c5.627,3.7,7.751,14.077,9.5,13.242s3.282-6.275,7.751-2.028,5.9,5.436,8.158,16" transform="translate(361.238)"/><path class="i" d="M0,.366s3.7-.824,6.212,0" transform="translate(421.679 132.088)"/><path d="M.493,1.167l.016,0A17.654,17.654,0,0,1,3.891.809a8.6,8.6,0,0,1,2.6.346A.4.4,0,0,0,7,.9.406.406,0,0,0,6.743.386,9.422,9.422,0,0,0,3.891,0,18.633,18.633,0,0,0,.317.376a.405.405,0,0,0,.176.791" transform="translate(421.275 131.683)"/><path class="h" d="M25.2,169.569a74.65,74.65,0,0,1-10.865.034L0,0,25.2,144.863v24.705" transform="translate(391.938 197.992)"/><path class="h" d="M0,.45S9.476,18.98,25.689,24.876l-1.475-4.16A65.417,65.417,0,0,1,3.422,3.767S-.052-1.551,0,.45" transform="translate(416.731 166.589)"/><path class="f" d="M.844,0s3.685,29.163,4,32.953,0,3.881-.368,3.915-2.9-.384-4.476.4c0,0,1.637-11.586,1.37-18.364C.791,4.264.844,0,.844,0" transform="translate(422.152 94.818)"/><path d="M.738,4.088h0a11.723,11.723,0,0,1,1.511-1.7,7.586,7.586,0,0,1,1.5-1.1A3.582,3.582,0,0,1,5.428.809a2.463,2.463,0,0,1,.969.2,3.225,3.225,0,0,1,.991.681,3.492,3.492,0,0,1,.771,1.058,2.5,2.5,0,0,1,.225,1.035,3.261,3.261,0,0,1-.492,1.637A6.7,6.7,0,0,1,5.808,7.509a7.116,7.116,0,0,1-1.263.662,4.2,4.2,0,0,1-1.135.293.4.4,0,0,0,.073.806,5.492,5.492,0,0,0,1.831-.553A8.343,8.343,0,0,0,7.941,6.723a5.716,5.716,0,0,0,.9-1.38,3.8,3.8,0,0,0,.354-1.564,3.3,3.3,0,0,0-.3-1.368,4.25,4.25,0,0,0-.943-1.3A4.044,4.044,0,0,0,6.711.26,3.275,3.275,0,0,0,5.428,0,4.4,4.4,0,0,0,3.34.589,9.565,9.565,0,0,0,1,2.49,11.842,11.842,0,0,0,.072,3.626a.4.4,0,0,0,.666.461" transform="translate(380.742 29.039)"/><path class="g" d="M.3,4.12.32,4.11A33.29,33.29,0,0,1,15.206.4,25.21,25.21,0,0,1,26.818,3.141a30.42,30.42,0,0,1,11.4,10.7.2.2,0,0,0,.279.057.2.2,0,0,0,.059-.28A30.813,30.813,0,0,0,27,2.781,25.614,25.614,0,0,0,15.206,0,33.645,33.645,0,0,0,.1,3.768a.2.2,0,0,0,.2.352" transform="translate(366.644 7.001)"/><path class="g" d="M.068.354c.024.021,6.525,5.735,19.3,5.734A48.592,48.592,0,0,0,29.3,5.017a.2.2,0,0,0-.083-.4A48.179,48.179,0,0,1,19.37,5.684,35.011,35.011,0,0,1,5.1,2.859,24.4,24.4,0,0,1,1.52.922C1.124.658.826.439.628.286.529.21.456.15.408.11L.353.065.339.054l0,0a.2.2,0,0,0-.269.3" transform="translate(375.764 18.617)"/><path class="g" d="M.263,12.683a7.973,7.973,0,0,0,3.169-2.354C5.036,8.541,6.893,5.466,8.15.25A.2.2,0,1,0,7.757.155c-1.244,5.163-3.073,8.172-4.627,9.9A7.61,7.61,0,0,1,.141,12.3a.2.2,0,0,0,.121.386" transform="translate(397.073 27.206)"/><path class="g" d="M.1.378s3,1.7,6.711,3.406a58.338,58.338,0,0,0,5.833,2.344A17.889,17.889,0,0,0,17.889,7.2a6.358,6.358,0,0,0,.688-.035.2.2,0,0,0-.045-.4,6,6,0,0,1-.643.033,17.54,17.54,0,0,1-5.115-1.052A67.814,67.814,0,0,1,4.38,2.172c-1.2-.6-2.22-1.133-2.94-1.52C1.079.458.8.3.6.193S.3.027.3.026A.2.2,0,0,0,.027.1.2.2,0,0,0,.1.378" transform="translate(371.942 13.763)"/><path class="g" d="M.142.4.2.415A33.733,33.733,0,0,1,11.615,7.468c5.406,4.99,10.833,13.1,11.557,25.831A123.307,123.307,0,0,0,30.687,68.63,104.264,104.264,0,0,0,41.712,90.825a.2.2,0,0,0,.334-.231,103.777,103.777,0,0,1-10.979-22.1,122.829,122.829,0,0,1-7.49-35.214C22.826,20.018,17,11.688,11.36,6.692A33.53,33.53,0,0,0,.262.009.2.2,0,0,0,.009.143.2.2,0,0,0,.144.4" transform="translate(411.159 22.434)"/><path class="g" d="M.006.25S2.341,9.888,6.341,21.092A145.413,145.413,0,0,0,13.508,38.07c2.752,5.38,5.835,10.149,9.19,13.3a.2.2,0,0,0,.285-.008.2.2,0,0,0-.008-.287c-3.3-3.1-6.369-7.834-9.107-13.192a168.291,168.291,0,0,1-9.819-24.9c-1.169-3.712-2.082-6.921-2.7-9.2C1.036,2.646.8,1.738.639,1.115.56.8.5.563.459.4S.4.155.4.155a.2.2,0,1,0-.393.1" transform="translate(450.407 72.591)"/><path class="f" d="M0,3.632S6.28.69,7.114.053,7.223,4.64.834,6.707L0,3.632" transform="translate(382.744 48.855)"/><path class="f" d="M16.266,0s2.209,4.316,0,6.212S2,9.844,0,17.528l2.228-2.386a70.377,70.377,0,0,0,9.3-3.774c2.948-1.657,5.9-3.842,8.476-3.343L19.317.105,16.266,0" transform="translate(370.672 137.088)"/><path d="M2,1.389c0,.767-.447,1.389-1,1.389S0,2.157,0,1.389.449,0,1,0,2,.622,2,1.389" transform="translate(361.086 28.787)"/><path d="M.575,1.358.514,1.228l.059.131h0L.514,1.228l.059.131A7.348,7.348,0,0,1,3.315.809,5.578,5.578,0,0,1,5.13,1.1,4.957,4.957,0,0,1,6.936,2.2a.405.405,0,0,0,.556-.589A5.776,5.776,0,0,0,5.393.334,6.377,6.377,0,0,0,3.315,0,8.08,8.08,0,0,0,.237.623a.4.4,0,1,0,.338.735" transform="translate(359.153 22.695)"/><path class="g" d="M12.073,2.871,10.382,22.765,0,21.567.283,0l11.79,2.871" transform="translate(155.981 353.444)"/><path d="M12.482,3.385l-.4-.034L10.424,22.829l-9.6-1.109L1.089,1.026l11.3,2.752.1-.393-.4-.034.4.034.1-.395L.293,0,0,22.441l11.159,1.287L12.915,3.073l-.338-.083-.1.395" transform="translate(155.573 352.93)"/><path class="c" d="M16.893,0s5.843,13.771,15.519,14.505A20.507,20.507,0,0,1,39.451,16.2,6.429,6.429,0,0,1,42.5,24.92l-41.479.87a20.5,20.5,0,0,1-.892-8.648A40.734,40.734,0,0,1,1.906,8.516C3.865,2.97,3.12.7,3.12.7L16.893,0" transform="translate(150.874 366.863)"/><path d="M17.3.419l-.372.158A37.317,37.317,0,0,0,21.108,7.64a24.539,24.539,0,0,0,4.963,5.034,13.072,13.072,0,0,0,6.715,2.653,20.171,20.171,0,0,1,6.9,1.657,5.92,5.92,0,0,1,2.574,2.258,6.047,6.047,0,0,1,.277,5.914l.362.182-.01-.4L1.414,25.8l.008.4.384-.125a20.155,20.155,0,0,1-1-6.258,19.877,19.877,0,0,1,.123-2.22A40.31,40.31,0,0,1,2.691,9.071a20.283,20.283,0,0,0,1.378-6.6A5.082,5.082,0,0,0,3.909.991l-.384.125.02.4L17.32.821,17.3.419l-.372.158L17.3.419l-.02-.4L2.976.739l.164.5L3.272,1.2l-.132.04v0L3.272,1.2l-.132.04A4.805,4.805,0,0,1,3.26,2.466,19.532,19.532,0,0,1,1.928,8.8a41.108,41.108,0,0,0-1.8,8.715,20.939,20.939,0,0,0,.911,8.818l.093.285,42.021-.882.109-.219a6.849,6.849,0,0,0-.314-6.705,6.732,6.732,0,0,0-2.924-2.566,20.932,20.932,0,0,0-7.177-1.728,12.259,12.259,0,0,1-6.3-2.5A27.009,27.009,0,0,1,20,4.6c-.761-1.216-1.346-2.3-1.738-3.088-.2-.391-.344-.706-.443-.921C17.769.482,17.733.4,17.706.342c-.012-.026-.02-.049-.026-.063L17.672.261,17.561,0l-.283.014.02.4" transform="translate(150.47 366.444)"/><path class="i" d="M0,.093H42.964" transform="translate(151.05 388.908)"/><path d="M.4.809H43.368a.4.4,0,1,0,0-.809H.4A.4.4,0,0,0,.4.809" transform="translate(150.646 388.539)"/><path class="f" d="M0,4.744S67.5-3.224,73.3,1.493C86.963,12.609,37.946,115.876,37.946,115.876s-4.482,1.586-16.241-1.942c0,0-4.878-59.747,6.21-72.373S0,4.744,0,4.744" transform="translate(131.689 240.906)"/><path d="M1.2,5.149l.049.4L1.7,5.5C3.944,5.238,14.2,4.065,26.36,2.958S52.579.809,62.4.809a72.6,72.6,0,0,1,7.836.34,18.318,18.318,0,0,1,2.576.451,4.043,4.043,0,0,1,1.422.611,5.586,5.586,0,0,1,1.7,2.831,16.964,16.964,0,0,1,.558,4.716,60.482,60.482,0,0,1-1.613,12.235c-3.6,16.6-12.63,40.141-20.755,59.517-4.063,9.69-7.9,18.34-10.724,24.567-1.41,3.114-2.568,5.621-3.371,7.351-.4.864-.716,1.534-.929,1.989s-.326.69-.326.69l.364.174-.134-.382.042.123-.042-.123.042.123-.042-.123a10.933,10.933,0,0,1-3.177.332,45.628,45.628,0,0,1-12.816-2.278l-.115.386.4-.032-.012-.15c-.117-1.487-1.054-13.874-1.054-28.127a202.433,202.433,0,0,1,1.422-25.945A67.732,67.732,0,0,1,25.87,49.372a19.83,19.83,0,0,1,3.543-7.138A8.414,8.414,0,0,0,31,39.625a8.062,8.062,0,0,0,.5-2.843A12.682,12.682,0,0,0,30.176,31.5a36.887,36.887,0,0,0-6.96-9.451A111.155,111.155,0,0,0,8.978,9.965C4.642,6.811,1.416,4.809,1.41,4.805L1.2,5.149l.049.4-.049-.4-.212.344.083.053A145.709,145.709,0,0,1,16.583,16.958,68.727,68.727,0,0,1,26.36,26.9,26.551,26.551,0,0,1,29.515,32a11.73,11.73,0,0,1,1.174,4.785,7.262,7.262,0,0,1-.449,2.56A7.566,7.566,0,0,1,28.8,41.7,20.587,20.587,0,0,0,25.1,49.133a84.975,84.975,0,0,0-2.922,17.089c-.554,6.43-.749,13.314-.749,19.809,0,15.24,1.068,28.335,1.068,28.343l.024.273.263.081a46.422,46.422,0,0,0,13.049,2.313,11.409,11.409,0,0,0,3.446-.378l.158-.055.073-.152c0-.006,9.443-19.9,18.888-43.168,4.722-11.634,9.445-24.116,12.99-35.382,1.772-5.635,3.252-10.965,4.287-15.74A61.058,61.058,0,0,0,77.3,9.759a17.63,17.63,0,0,0-.593-4.945,6.354,6.354,0,0,0-1.963-3.229A4.693,4.693,0,0,0,73.027.819,24.681,24.681,0,0,0,68.644.19C66.851.059,64.745,0,62.4,0,51.866,0,36.562,1.188,23.88,2.375S1.151,4.749,1.149,4.749L0,4.884l.983.609L1.2,5.149" transform="translate(130.493 240.501)"/><path class="k" d="M0,.817S41.62-5.313,43.041,16,2.1,62.442,17.2,111.63c0,0-8.621.233-15.78-2.365,0,0-4.018-48.726,4.194-68.939S0,.817,0,.817" transform="translate(152.434 245.153)"/><path class="g" d="M11.776,0,20.3,18.283l-9.7,4.174L0,3.417,11.776,0" transform="translate(228.28 355.136)"/><path d="M12.377.486l-.366.17,8.35,17.907-8.982,3.865L1.2,4.15,12.49.874,12.377.486l-.366.17.366-.17L12.263.1,0,3.654l11.027,19.8,10.42-4.484L12.6,0l-.334.1.113.388" transform="translate(227.679 354.65)"/><path class="c" d="M17.07,0s5.9,13.917,15.681,14.657a20.766,20.766,0,0,1,7.112,1.71,6.5,6.5,0,0,1,3.075,8.814l-41.91.878a20.763,20.763,0,0,1-.9-8.739,41.182,41.182,0,0,1,1.8-8.713C3.9,3,3.153.706,3.153.706L17.07,0" transform="translate(230.77 368.065)"/><path d="M17.474.419,17.1.577a37.61,37.61,0,0,0,4.225,7.138A24.79,24.79,0,0,0,26.342,12.8a13.215,13.215,0,0,0,6.78,2.681A20.294,20.294,0,0,1,40.1,17.154a5.987,5.987,0,0,1,2.6,2.282,6.113,6.113,0,0,1,.279,5.981l.362.182-.008-.4-41.91.878.008.4.384-.125a20.372,20.372,0,0,1-.884-8.567A40.819,40.819,0,0,1,2.711,9.16,20.491,20.491,0,0,0,4.1,2.491,5.206,5.206,0,0,0,3.941,1l-.384.125.02.4L17.494.824l-.02-.4L17.1.577l.372-.158-.02-.4L3.009.749l.164.5L3.3,1.208l-.132.04v0L3.3,1.208l-.132.04a4.836,4.836,0,0,1,.119,1.242,19.75,19.75,0,0,1-1.344,6.4,41.494,41.494,0,0,0-1.819,8.8A21.143,21.143,0,0,0,1.048,26.6l.093.283L43.6,26l.109-.219a6.923,6.923,0,0,0-.318-6.772,6.812,6.812,0,0,0-2.952-2.59,21.148,21.148,0,0,0-7.25-1.744,12.384,12.384,0,0,1-6.365-2.527,27.254,27.254,0,0,1-6.618-7.5c-.769-1.23-1.36-2.329-1.756-3.12-.2-.4-.348-.714-.449-.933C17.945.486,17.909.4,17.884.346,17.87.318,17.862.3,17.856.281l-.01-.02L17.737,0l-.283.016.02.4" transform="translate(230.366 367.646)"/><path class="i" d="M0,.093H43.413" transform="translate(230.946 390.342)"/><path d="M.4.809H43.818a.4.4,0,0,0,0-.809H.4A.4.4,0,0,0,.4.809" transform="translate(230.542 389.974)"/><path class="d" d="M7.5,0H48.166l6.62,9.455H0L7.5,0" transform="translate(188.588 179.849)"/><path d="M8.334.4v.4H48.793l6.054,8.646H1.673L8.652.658,8.334.4v0L8.019.154,0,10.264H56.4L49.214,0H8.14L8.019.154,8.334.4" transform="translate(187.75 179.444)"/><path class="i" d="M0,2.586H54.786V0H0Z" transform="translate(188.588 189.304)"/><path d="M55.191,2.991v-.4H.809V.809H54.786V2.991h.4v0h.4V0H0V3.4H55.6v-.4h-.4" transform="translate(188.183 188.9)"/><path class="d" d="M13.5,0H86.739L98.662,9.455H0L13.5,0" transform="translate(249.952 179.849)"/><path d="M14.787.4v.4h73.1l10.9,8.646H2.568L15.019.736,14.787.4v0L14.554.073,0,10.264H101.109L88.165,0H14.659l-.105.073L14.787.4" transform="translate(248.667 179.444)"/><path class="i" d="M0,2.586H98.662V0H0Z" transform="translate(249.952 189.304)"/><path d="M99.067,2.991v-.4H.809V.809H98.662V2.991h.4v0h.4V0H0V3.4H99.472v-.4h-.4" transform="translate(249.547 188.9)"/><path class="g" d="M0,43.958V66.223s19.05.866,18.926,0-2.1-18.926-2.1-18.926,12.618,5.319,16.7-1.236A24.957,24.957,0,0,0,37.4,33.305s4.247-2.171,4.37-4.026-6.108-6.094-6.639-10.518C34.059,9.816,25.812-2.76,20.163.538,13.789,4.26,0,43.958,0,43.958" transform="translate(103.042 80.162)"/><path d="M.4,44.363H0V67.015l.386.018s8.468.384,14.093.386c1.392,0,2.61-.024,3.494-.085a8.719,8.719,0,0,0,1.07-.123,1.549,1.549,0,0,0,.366-.111.625.625,0,0,0,.186-.127.568.568,0,0,0,.1-.136.486.486,0,0,0,.045-.2c0-.018,0-.036,0-.061v0c-.008-.045-.022-.168-.042-.346-.16-1.344-.676-5.989-1.149-10.293-.239-2.153-.465-4.223-.633-5.752-.085-.765-.154-1.4-.2-1.835s-.075-.686-.075-.686l-.4.042-.156.374a29.33,29.33,0,0,0,3.041,1.034,25.05,25.05,0,0,0,6.6,1.034,11.414,11.414,0,0,0,4.251-.728,6.8,6.8,0,0,0,3.312-2.736,25.641,25.641,0,0,0,3.937-12.818c0-.105,0-.162,0-.166l-.4.014.184.36a19.191,19.191,0,0,0,2.189-1.35,9.761,9.761,0,0,0,1.562-1.356,4.145,4.145,0,0,0,.567-.783,2.141,2.141,0,0,0,.271-.872c0-.028,0-.055,0-.083a2.149,2.149,0,0,0-.316-1.006,12.389,12.389,0,0,0-1.477-1.936c-.933-1.064-2.074-2.284-3.017-3.579a8.92,8.92,0,0,1-1.835-3.988,26.325,26.325,0,0,0-1.694-6.384,31.249,31.249,0,0,0-5.151-8.753,15.014,15.014,0,0,0-3.2-2.867A6.338,6.338,0,0,0,22.542,0a4.265,4.265,0,0,0-2.179.594,6.137,6.137,0,0,0-1.372,1.178,24.993,24.993,0,0,0-2.8,4.018,112.772,112.772,0,0,0-5.433,10.953C5.245,29.194.024,44.224.022,44.23L0,44.294v.069H.4l.382.132s.053-.154.156-.445C1.71,41.866,5.216,32,9.273,22.252c2.029-4.872,4.2-9.717,6.222-13.549a46.264,46.264,0,0,1,2.891-4.859,15.353,15.353,0,0,1,1.285-1.616,5.143,5.143,0,0,1,1.1-.936,3.444,3.444,0,0,1,1.77-.483,4.741,4.741,0,0,1,1.912.445,11.425,11.425,0,0,1,3.531,2.7,28.366,28.366,0,0,1,4.66,7.114,27.561,27.561,0,0,1,2.489,8.142A8.416,8.416,0,0,0,36.451,22.6a33.729,33.729,0,0,0,3.46,4.316,20.591,20.591,0,0,1,1.366,1.657,4.05,4.05,0,0,1,.38.635,1.1,1.1,0,0,1,.115.421l0,.028a1.321,1.321,0,0,1-.176.54,4.426,4.426,0,0,1-.941,1.111,14.066,14.066,0,0,1-1.985,1.445c-.3.186-.567.336-.755.439-.093.053-.168.093-.219.119a.429.429,0,0,0-.057.03l-.018.008-.231.117.01.257v.14a24.832,24.832,0,0,1-3.816,12.389,5.983,5.983,0,0,1-2.928,2.414,10.609,10.609,0,0,1-3.948.67,24.154,24.154,0,0,1-6.374-1c-.884-.251-1.623-.5-2.141-.69-.259-.1-.463-.172-.6-.227l-.158-.063-.038-.016-.012-.006-.635-.267.077.684s.494,4.516,1,9.139c.255,2.311.514,4.65.718,6.467.1.906.188,1.683.255,2.26.032.289.061.528.081.708s.036.3.047.366l0,0,.342-.047h-.344a.39.39,0,0,0,0,.047l.342-.047h0l-.312-.148a.377.377,0,0,0-.032.148h.344l-.312-.148.253.121-.158-.235a.271.271,0,0,0-.1.113l.253.121-.158-.235.047.069-.036-.075-.01.006.047.069-.036-.075a.947.947,0,0,1-.136.04,5.931,5.931,0,0,1-.643.089c-.844.079-2.209.111-3.806.111-2.8,0-6.311-.1-9.127-.192-1.408-.049-2.64-.1-3.521-.134L.8,66.242l-.374-.016-.018.4h.4V44.363H.4l.382.132L.4,44.363" transform="translate(102.638 79.757)"/><path class="b" d="M22.531,4.068l0,0s-.366.179-1,.521q-2.37,1.253-4.975,2.873a34.372,34.372,0,0,0-4.213,3.072C4.2,16.808-4.7,27,2.87,38.184c0,0-2.906-9.864,2.155-16.928-3.195,10.249,2,21.057,5.839,26.9,5.69,8.658,6.432,7.422,12.988,4.453s6.309-13.484,11.381-17.937,7.545,2.968,8.288,2.349-2.1-8.288-2.475-21.276,6.989-3.674,6.989-3.674v-.532C46.1.7,38.467-4.008,22.531,4.068" transform="translate(83.271 71.508)"/><path d="M5.048,10.208A9.994,9.994,0,0,1,1.661,7.484,4.038,4.038,0,0,1,.809,5.056,4.088,4.088,0,0,1,1.072,3.64a5.842,5.842,0,0,1,.915-1.586c.154-.192.291-.342.388-.443.049-.051.089-.089.115-.113l.028-.026.006-.006v0l-.111-.123.111.125v0l-.111-.123.111.125.02-.018.018-.022,0,0,0,0,0,0,0,0A1.953,1.953,0,0,1,2.984,1.1,2.1,2.1,0,0,1,4.045.809a3.145,3.145,0,0,1,1.77.635,10.121,10.121,0,0,1,2.493,2.7.4.4,0,0,0,.67-.455A10.888,10.888,0,0,0,6.272.777,3.952,3.952,0,0,0,4.045,0,2.9,2.9,0,0,0,2.509.439,2.606,2.606,0,0,0,1.948.9l.308.263L1.987.86A6.619,6.619,0,0,0,.993,2.042a6.409,6.409,0,0,0-.68,1.317A4.882,4.882,0,0,0,0,5.056a4.86,4.86,0,0,0,1.008,2.9A10.765,10.765,0,0,0,4.66,10.918a.4.4,0,1,0,.388-.71" transform="translate(117.509 104.206)"/><path class="f" d="M4.42.948S.055-.756,0,.405s3.519,10.453,5.552,12.1c0,0-.969-8.1-1.133-11.559" transform="translate(115.137 125.934)"/><path class="l" d="M2.414,31.736,0,30.6,14.42,0l2.414,1.137-14.42,30.6" transform="translate(213.768 152.842)"/><path d="M2.549,31.872l.045-.093L.269,30.684,14.6.269l2.23,1.052L2.458,31.827l.091.045.045-.093-.045.093.091.042L17.105,1.224,14.507,0,0,30.781l2.6,1.224.042-.091-.091-.042" transform="translate(213.633 152.706)"/><path class="f" d="M2.236,7.189S-13.35,46.45,37.774,46.14s87.933-4.486,87.933-4.486,17.247,49.892,41.268,72.99c0,0,7.359,1.76,18.139-7.171,0,0-24.606-92.92-34.154-96.617S79.048,0,79.048,0L2.236,7.189" transform="translate(59.878 245.97)"/><path d="M2.64,7.6l-.376-.15A38.29,38.29,0,0,0,0,20.209a27.511,27.511,0,0,0,1.439,9.048A22.437,22.437,0,0,0,11.889,41.566c5.7,3.278,13.931,5.388,25.692,5.388.2,0,.4,0,.6,0h0c51.144-.308,87.967-4.488,87.977-4.488l-.047-.4-.382.134c0,.008,4.32,12.492,11.642,27.874s17.652,33.658,29.727,45.274l.081.077.107.024a8.146,8.146,0,0,0,1.768.152c2.849,0,8.927-.943,16.721-7.4l.2-.166-.067-.251s-6.153-23.236-13.5-46.938c-3.674-11.851-7.646-23.819-11.3-33.068a107.177,107.177,0,0,0-5.176-11.489,25.659,25.659,0,0,0-2.29-3.575,8.76,8.76,0,0,0-1.07-1.145,3.681,3.681,0,0,0-1.058-.674,42.6,42.6,0,0,0-5.894-1.546c-9.192-1.93-25.711-4.261-39.945-6.113S79.5.006,79.5.006L79.457,0,2.355,7.215l-.091.231.376.15.036.4L79.491.811l-.038-.4-.047.4.7.081c3.442.4,19.005,2.228,34.824,4.389,7.909,1.08,15.881,2.242,22.431,3.353,3.276.554,6.2,1.095,8.571,1.6a39.413,39.413,0,0,1,5.285,1.406,2.857,2.857,0,0,1,.817.53A11.719,11.719,0,0,1,154,14.617a63.251,63.251,0,0,1,4.429,8.791c2.786,6.469,5.85,15,8.874,24.141,4.54,13.716,8.994,28.827,12.314,40.507,1.661,5.839,3.037,10.821,4,14.343.48,1.762.856,3.158,1.113,4.113.13.478.227.846.293,1.095s.1.376.1.376l.393-.1-.259-.314c-7.668,6.351-13.534,7.217-16.2,7.219a9.972,9.972,0,0,1-1.2-.067c-.134-.016-.233-.032-.3-.045-.032-.006-.057-.01-.071-.014l-.016,0h0l-.032.138.034-.138h0l-.032.138.034-.138-.1.395.281-.291c-11.946-11.482-22.257-29.7-29.557-45.04-3.654-7.668-6.556-14.619-8.547-19.651-.993-2.517-1.76-4.553-2.278-5.959-.259-.7-.455-1.248-.587-1.619-.065-.186-.115-.326-.148-.421s-.051-.142-.051-.142l-.105-.308-.322.038s-.144.014-.425.047c-4.221.459-39.558,4.148-87.467,4.435h0c-.2,0-.4,0-.595,0a62.3,62.3,0,0,1-18.866-2.5C11.367,41.3,6.914,37.541,4.273,33.329A24.5,24.5,0,0,1,.809,20.209a37.628,37.628,0,0,1,1.1-8.83c.277-1.129.554-2.04.761-2.669.1-.314.19-.558.249-.722.03-.081.053-.144.069-.184l.018-.047.006-.014L2.64,7.6l.036.4L2.64,7.6" transform="translate(59.474 245.563)"/><path class="k" d="M90.969,7.247s-10.7,15.495-45.228,21.286,4.105,22.425,35.9,15.582,34.144-8.207,40.6-3.644l2.353,4.854S30.685,55.01,14.446,46.376C-1.213,38.052-2.793,24.722,3.313,7.688s87.655-.441,87.655-.441" transform="translate(60.458 241.837)"/><path class="g" d="M0,13.064s4.585-3.421,5.473-6.09S10.744-1.239,13.208.335s-.275,4.654,6.021.48,3.355,8.965,4.791,10.95S25.253,17.1,20.8,18.128s-15.4,3.286-15.4,3.286L0,13.064" transform="translate(201.361 175.257)"/><path d="M.546,13.469l.241.324a30.252,30.252,0,0,0,2.44-2.074,20.061,20.061,0,0,0,1.88-2.011,7.584,7.584,0,0,0,1.3-2.2A9.953,9.953,0,0,1,7.4,5.524a15.894,15.894,0,0,1,2.626-3.191,7.659,7.659,0,0,1,1.467-1.076A2.848,2.848,0,0,1,12.786.868a1.378,1.378,0,0,1,.751.212,2.275,2.275,0,0,1,.71.7,3.2,3.2,0,0,1,.279.567,6.383,6.383,0,0,0,.348.848,1.089,1.089,0,0,0,.348.376,1.03,1.03,0,0,0,.552.152,2.123,2.123,0,0,0,.672-.134,8.385,8.385,0,0,0,1.392-.676c.577-.33,1.283-.773,2.163-1.358A5.651,5.651,0,0,1,21.079.977a2.218,2.218,0,0,1,.783-.168A1.107,1.107,0,0,1,22.3.892a1.041,1.041,0,0,1,.326.216,2.192,2.192,0,0,1,.5.824,9.181,9.181,0,0,1,.463,2.509c.111,1.475.077,3.162.1,4.613a18.361,18.361,0,0,0,.113,1.961,4.981,4.981,0,0,0,.152.773,1.989,1.989,0,0,0,.281.619,3.7,3.7,0,0,1,.716,2.145,3.049,3.049,0,0,1-.805,2.08,5.428,5.428,0,0,1-2.891,1.507c-2.218.512-6.068,1.333-9.36,2.025-1.645.348-3.154.662-4.249.89-.548.113-.993.2-1.3.269l-.48.1.083.4.34-.221L.884,13.249l-.338.221.241.324-.241-.324-.34.221,5.556,8.581.271-.055s10.948-2.258,15.408-3.288a6.208,6.208,0,0,0,3.31-1.754,3.861,3.861,0,0,0,1.014-2.622,4.516,4.516,0,0,0-.87-2.62,1.088,1.088,0,0,1-.14-.3,5.223,5.223,0,0,1-.188-1.121c-.071-.815-.073-1.868-.077-2.976,0-.832-.01-1.7-.053-2.535a11.375,11.375,0,0,0-.554-3.359A2.939,2.939,0,0,0,23.133.475a1.84,1.84,0,0,0-.575-.352,1.967,1.967,0,0,0-.7-.123A2.984,2.984,0,0,0,20.79.223a6.371,6.371,0,0,0-1.236.66c-1.161.769-2.011,1.289-2.624,1.607a5.852,5.852,0,0,1-.747.336,1.367,1.367,0,0,1-.409.089.258.258,0,0,1-.111-.02.216.216,0,0,1-.057-.055,1.473,1.473,0,0,1-.168-.356,6.141,6.141,0,0,0-.423-1A3.119,3.119,0,0,0,13.971.4a2.183,2.183,0,0,0-1.186-.34,3.126,3.126,0,0,0-1.123.229A6.9,6.9,0,0,0,9.744,1.5,15.716,15.716,0,0,0,7.2,4.358,12.1,12.1,0,0,0,5.637,7.252,6.828,6.828,0,0,1,4.474,9.2a22.06,22.06,0,0,1-2.7,2.738c-.421.366-.789.668-1.054.878-.132.105-.237.186-.31.243-.036.026-.065.049-.083.063l-.026.02-.3.227.206.318.34-.221" transform="translate(200.815 174.851)"/><path class="f" d="M0,0a7,7,0,0,1,4.86,2.12C6.914,4.312,16.767,4.654,16.767,4.654L2.944,7.6,0,0" transform="translate(204.576 188.458)"/><path class="g" d="M47.513,0s2.8,9.88,16.883,5.6a18.264,18.264,0,0,0,5.325-2.727c.838-.6,1.957-1.02,2.891,0,1.746,1.9,6.058,2.507,15.4,5.133,10.012,2.812,12.935,22.481,27.475,52.817,0,0,19.131-7.391,30.834-11.292,0,0,5.247-2.244,9.148,11,0,0-37.141,24.555-46.405,26.51-7.521,1.586-14.4-2.153-18.4-11.187,0,0-.186,23.57,2.276,28.5,0,0,2.258-2.054,4.619.923s1.439,8.008-3.695,10.677-36.275,22.3-75.078,7.929c0,0-12.577-6.839-17.967-7.61s17.492-85.9,20.11-97.752C23.359,7.511,30.442,8.178,45,2.772,46.121,2.355,45.666.326,47.513,0" transform="translate(53.225 137.488)"/><path d="M47.917.461l-.388.111a9.636,9.636,0,0,0,2.1,3.5,10.26,10.26,0,0,0,3.3,2.39,12.836,12.836,0,0,0,5.376,1.078,22.813,22.813,0,0,0,6.61-1.091,18.658,18.658,0,0,0,5.443-2.786,3.558,3.558,0,0,1,.68-.393,1.82,1.82,0,0,1,.678-.15,1.154,1.154,0,0,1,.494.105,1.554,1.554,0,0,1,.506.38,5.991,5.991,0,0,0,1.959,1.329,34.511,34.511,0,0,0,5.117,1.645c2.222.593,5.014,1.291,8.512,2.274a9.108,9.108,0,0,1,3.312,1.758,21.63,21.63,0,0,1,5.012,6.669c2.392,4.447,4.733,10.513,7.662,17.951s6.454,16.258,11.234,26.225l.162.338.348-.136.844-.324c3.82-1.469,19.748-7.553,29.972-10.962l.016,0,.016-.008-.073-.17.069.172,0,0-.073-.17.069.172a2.182,2.182,0,0,1,.745-.113,3.583,3.583,0,0,1,1.422.318,7.535,7.535,0,0,1,3.043,2.78,27.069,27.069,0,0,1,3.393,7.755l.388-.113-.223-.338-.419.275c-2.054,1.352-11.377,7.45-21.267,13.437-4.943,2.993-10.03,5.959-14.416,8.288-2.191,1.163-4.211,2.167-5.945,2.936a23.138,23.138,0,0,1-4.221,1.515,15.628,15.628,0,0,1-3.227.346,13.7,13.7,0,0,1-8.346-2.806,21,21,0,0,1-6.372-8.494l-.759-1.714-.016,1.874s0,.415,0,1.141c0,2.388.034,8.162.338,13.884.152,2.861.37,5.71.686,8.12.158,1.2.34,2.3.552,3.237a10.647,10.647,0,0,0,.745,2.3l.239.478.4-.358-.1-.107.1.107h0l-.1-.107.1.107a2.44,2.44,0,0,1,.461-.3,2.493,2.493,0,0,1,1.125-.283,2.377,2.377,0,0,1,1.119.289,4.324,4.324,0,0,1,1.327,1.172,5.358,5.358,0,0,1,1.145,3.357,6.576,6.576,0,0,1-1.133,3.606,9.4,9.4,0,0,1-3.577,3.1c-.484.251-1.176.639-2.074,1.133-6.276,3.446-22.611,11.96-44.1,11.96a81.752,81.752,0,0,1-28.58-5.186l-.14.38.192-.356s-3.152-1.714-6.981-3.525c-1.916-.906-4-1.837-5.951-2.592a25.786,25.786,0,0,0-5.17-1.538l-.038-.014a.451.451,0,0,1-.134-.174,2.722,2.722,0,0,1-.221-.828,10.709,10.709,0,0,1-.079-1.42,57.219,57.219,0,0,1,.8-7.877C3.4,94.328,7.913,74.906,12.239,57.259,14.4,48.433,16.517,40.05,18.218,33.29S21.211,21.4,21.727,19.068a14.9,14.9,0,0,1,2.663-6.181A11.424,11.424,0,0,1,27.637,10.1a35.995,35.995,0,0,1,7.318-2.964c2.968-.953,6.481-2,10.588-3.521a1.417,1.417,0,0,0,.5-.316,2.378,2.378,0,0,0,.49-.769,6.289,6.289,0,0,1,.51-1.082,1.32,1.32,0,0,1,.362-.364A1.508,1.508,0,0,1,47.988.86l-.071-.4-.388.111.388-.111-.069-.4a2.2,2.2,0,0,0-1.236.629,2.787,2.787,0,0,0-.486.72c-.176.366-.291.72-.425.977a1.313,1.313,0,0,1-.2.3.612.612,0,0,1-.237.162c-7.254,2.7-12.652,3.871-16.62,5.787a13.365,13.365,0,0,0-4.89,3.743,15.774,15.774,0,0,0-2.816,6.507c-.581,2.64-2.183,8.967-4.255,17.194C13.573,48.427,9.4,65.053,6.013,80c-1.7,7.472-3.2,14.526-4.277,20.42-.538,2.946-.973,5.6-1.273,7.877A45.8,45.8,0,0,0,0,113.9a8.317,8.317,0,0,0,.212,2.153,2.042,2.042,0,0,0,.324.7A1.116,1.116,0,0,0,.809,117a.881.881,0,0,0,.356.132,25.15,25.15,0,0,1,4.992,1.491c2.885,1.117,6.1,2.636,8.587,3.875,1.244.621,2.309,1.169,3.061,1.566.374.2.674.354.878.463l.233.125c.053.028.079.045.079.045l.026.012.026.012a82.636,82.636,0,0,0,28.861,5.234,88.193,88.193,0,0,0,31.16-5.86,99.5,99.5,0,0,0,10.016-4.441c1.3-.666,2.412-1.265,3.312-1.76s1.6-.884,2.058-1.125a10.178,10.178,0,0,0,3.881-3.375,7.377,7.377,0,0,0,1.267-4.051,6.179,6.179,0,0,0-1.321-3.861A5.094,5.094,0,0,0,96.7,104.1a3.143,3.143,0,0,0-1.5-.384,3.308,3.308,0,0,0-1.53.391,3.02,3.02,0,0,0-.6.4l.271.3.362-.182a9.764,9.764,0,0,1-.678-2.116,48.905,48.905,0,0,1-.854-6.005c-.643-6.974-.7-15.934-.7-19.056,0-.362,0-.645,0-.84v-.3l-.4,0-.37.164a21.812,21.812,0,0,0,6.626,8.814,14.522,14.522,0,0,0,8.832,2.968,16.509,16.509,0,0,0,3.4-.362,25.394,25.394,0,0,0,4.737-1.728c3.351-1.511,7.632-3.818,12.176-6.43,13.631-7.832,29.63-18.408,29.632-18.41l.251-.166-.085-.287c-1.469-4.984-3.134-7.828-4.686-9.447a6.953,6.953,0,0,0-2.205-1.6,4.356,4.356,0,0,0-1.744-.384,2.856,2.856,0,0,0-1.058.178l.158.372-.127-.384c-11.719,3.907-30.848,11.3-30.852,11.3l.146.378.364-.176C109,45.964,104.635,33.48,100.829,24.4a59.931,59.931,0,0,0-5.611-10.989,16.742,16.742,0,0,0-3.09-3.424,9.943,9.943,0,0,0-3.6-1.908c-4.678-1.313-8.1-2.125-10.544-2.837A22.02,22.02,0,0,1,75.016,4.2a5.218,5.218,0,0,1-1.7-1.139,2.369,2.369,0,0,0-.769-.573,1.992,1.992,0,0,0-.828-.176,2.581,2.581,0,0,0-.989.212,4.342,4.342,0,0,0-.842.484,17.83,17.83,0,0,1-5.206,2.667,22.036,22.036,0,0,1-6.374,1.056,12,12,0,0,1-5.04-1.006A9.428,9.428,0,0,1,49.3,2.351,9.242,9.242,0,0,1,48.52.919c-.077-.182-.132-.328-.166-.425a1.114,1.114,0,0,1-.036-.111L48.309.356l0,0-.014,0,.014,0-.014,0,.014,0L48.208,0l-.36.063.069.4" transform="translate(52.821 137.027)"/><path class="f" d="M1.94.132,18.791,28.01l.245,11.159S-7.221-2.64,1.94.132" transform="translate(124.537 185.334)"/><path class="g" d="M0,0S2.5,4.362,3.426,5.849" transform="translate(168.712 198.314)"/><path d="M.054.606S.679,1.7,1.42,2.976s1.6,2.74,2.066,3.494a.4.4,0,0,0,.688-.427c-.457-.734-1.313-2.2-2.054-3.474-.37-.637-.71-1.228-.959-1.661C1.035.691.934.515.865.394S.756.2.756.2a.4.4,0,0,0-.7.4" transform="translate(168.308 197.908)"/><path class="g" d="M7.219,1.02a6.261,6.261,0,0,0-.925-.51A5.289,5.289,0,0,0,4.164,0a3.216,3.216,0,0,0-1.5.353A4.2,4.2,0,0,0,.771,2.719,15.491,15.491,0,0,0,0,8.172,64.662,64.662,0,0,0,1.483,20.4a.2.2,0,0,0,.237.159.2.2,0,0,0,.16-.238A64.362,64.362,0,0,1,.4,8.172c0-3.232.52-5.189,1.244-6.315A3.17,3.17,0,0,1,2.847.712,2.822,2.822,0,0,1,4.164.4,4.9,4.9,0,0,1,6.127.878a6.467,6.467,0,0,1,.629.328c.075.045.134.082.172.107l.045.029.01.007,0,0a.2.2,0,0,0,.233-.331" transform="translate(120.287 75.927)"/><path class="g" d="M12.217.135A5.765,5.765,0,0,0,10.888,0,7.768,7.768,0,0,0,7.836.631,10.536,10.536,0,0,0,2.586,6.237C1.07,9.483,0,14.365,0,21.706,0,24.389.142,27.4.459,30.78a.2.2,0,1,0,.4-.036C.546,27.374.4,24.374.4,21.706.4,11.969,2.3,6.639,4.548,3.757A8.717,8.717,0,0,1,8,1,7.363,7.363,0,0,1,10.888.4a6.326,6.326,0,0,1,.9.062c.107.015.188.031.243.042L12.1.522l.016,0h0a.2.2,0,0,0,.1-.392" transform="translate(110.545 73.937)"/><path class="g" d="M15.974.015A28.181,28.181,0,0,0,7.986,5.449,25.164,25.164,0,0,0,0,24.124a35.324,35.324,0,0,0,1.554,10.03.2.2,0,0,0,.251.138.206.206,0,0,0,.138-.253A34.921,34.921,0,0,1,.4,24.124,24.765,24.765,0,0,1,8.265,5.741a29.66,29.66,0,0,1,5.41-4.09c.739-.434,1.352-.75,1.781-.957.214-.1.382-.18.5-.23l.129-.056L16.126.39a.2.2,0,0,0-.152-.375" transform="translate(93.254 77.405)"/><path d="M1.98,1.235c.154.781-.156,1.5-.692,1.6S.193,2.4.039,1.618.2.118.731.013,1.826.454,1.98,1.235" transform="translate(134.019 99.163)"/><path d="M.758,3.476h0A7.452,7.452,0,0,1,1.814,2.091a5.05,5.05,0,0,1,1.141-.9A2.841,2.841,0,0,1,4.341.809,2.839,2.839,0,0,1,5.8,1.237a.4.4,0,1,0,.411-.7A3.649,3.649,0,0,0,4.341,0a3.679,3.679,0,0,0-1.8.5A6.493,6.493,0,0,0,.716,2.118a7.809,7.809,0,0,0-.666.967.4.4,0,0,0,.708.392" transform="translate(129.027 93.377)"/><path d="M7.3.847,7.333.93,7.3.847,7.333.93,7.3.847a9.543,9.543,0,0,1-2.772.413,7.417,7.417,0,0,1-1.955-.247A5.611,5.611,0,0,1,.648.082.4.4,0,0,0,.16.728,6.4,6.4,0,0,0,2.366,1.794a8.245,8.245,0,0,0,2.167.275,10.229,10.229,0,0,0,3.035-.457A.4.4,0,1,0,7.3.847" transform="translate(130.902 116.622)"/><path d="M12.408,8.419a16.224,16.224,0,0,0-1.977-4.178,10.749,10.749,0,0,0-2.77-2.9A7.379,7.379,0,0,0,3.4,0,9.427,9.427,0,0,0,.27.575a.405.405,0,0,0,.269.765A8.545,8.545,0,0,1,3.4.809a6.575,6.575,0,0,1,3.8,1.2,11.232,11.232,0,0,1,3.405,4.134,16.4,16.4,0,0,1,.781,1.776c.083.227.144.407.182.532.02.061.034.109.045.142l.01.034,0,.008v0a.405.405,0,0,0,.781-.216" transform="translate(173.567 279.098)"/><path class="g" d="M0,2.077S4.287,3.4,6.764,0" transform="translate(362.759 46.058)"/><path d="M.285,2.869a7.678,7.678,0,0,0,2.074.272,6.855,6.855,0,0,0,2.58-.478A5.842,5.842,0,0,0,7.494.643.4.4,0,1,0,6.84.167,5.033,5.033,0,0,1,4.635,1.912a6.069,6.069,0,0,1-2.276.419,7.46,7.46,0,0,1-1.327-.121c-.166-.03-.3-.06-.382-.082L.552,2.1.53,2.1H.523a.4.4,0,0,0-.239.774" transform="translate(362.355 45.653)"/><path d="M.048.6S3.022,6.1,6.731,12.538c1.855,3.221,3.893,6.675,5.835,9.8s3.792,5.91,5.277,7.808a.4.4,0,0,0,.637-.5c-1.451-1.853-3.29-4.629-5.226-7.739-2.9-4.666-6.03-10.09-8.427-14.35C3.629,5.43,2.612,3.593,1.9,2.288,1.537,1.636,1.252,1.116,1.058.76S.76.212.76.212A.4.4,0,0,0,.048.6" transform="translate(125.727 183.447)"/><path class="k" d="M0,0S21.626,22.7,34.785,8.488l3.606,13.146s-8.808,7.634-17.273,7A135.209,135.209,0,0,1,0,0" transform="translate(206.091 331.695)"/></g></svg>