<svg xmlns="http://www.w3.org/2000/svg" width="295.86" height="251.55" viewBox="0 0 295.86 251.55"><defs><style>.a{fill:#f2f2f2;}.b{fill:#fc8b7b;}</style></defs><g transform="translate(-1197.29 -574.61)"><ellipse class="a" cx="123.89" cy="123.89" rx="123.89" ry="123.89" transform="translate(1245.37 574.61)"/><g transform="translate(1197.29 643.89)"><ellipse class="b" cx="1.94" cy="1.94" rx="1.94" ry="1.94" transform="translate(29.22 24.73)"/><ellipse class="b" cx="2.38" cy="2.38" rx="2.38" ry="2.38" transform="translate(28.78 49.46)"/><ellipse class="b" cx="2.82" cy="2.82" rx="2.82" ry="2.82" transform="translate(28.34 74.19)"/><ellipse class="b" cx="3.26" cy="3.26" rx="3.26" ry="3.26" transform="translate(27.9 98.92)"/><ellipse class="b" cx="3.7" cy="3.7" rx="3.7" ry="3.7" transform="translate(27.46 123.65)"/><ellipse class="b" cx="4.14" cy="4.14" rx="4.14" ry="4.14" transform="translate(27.02 148.38)"/><ellipse class="b" cx="2.38" cy="2.38" rx="2.38" ry="2.38" transform="translate(1.32 49.46)"/><ellipse class="b" cx="2.82" cy="2.82" rx="2.82" ry="2.82" transform="translate(0.88 74.19)"/><ellipse class="b" cx="3.26" cy="3.26" rx="3.26" ry="3.26" transform="translate(0.44 98.92)"/><ellipse class="b" cx="3.7" cy="3.7" rx="3.7" ry="3.7" transform="translate(0 123.65)"/><ellipse class="b" cx="1.5" cy="1.5" rx="1.5" ry="1.5" transform="translate(84.59)"/><ellipse class="b" cx="1.94" cy="1.94" rx="1.94" ry="1.94" transform="translate(84.15 24.73)"/><ellipse class="b" cx="2.38" cy="2.38" rx="2.38" ry="2.38" transform="translate(83.71 49.46)"/><ellipse class="b" cx="2.82" cy="2.82" rx="2.82" ry="2.82" transform="translate(83.27 74.19)"/><ellipse class="b" cx="3.26" cy="3.26" rx="3.26" ry="3.26" transform="translate(82.83 98.92)"/><ellipse class="b" cx="3.7" cy="3.7" rx="3.7" ry="3.7" transform="translate(82.39 123.65)"/><ellipse class="b" cx="4.14" cy="4.14" rx="4.14" ry="4.14" transform="translate(81.95 148.38)"/><ellipse class="b" cx="4.58" cy="4.58" rx="4.58" ry="4.58" transform="translate(81.51 173.11)"/><ellipse class="b" cx="1.5" cy="1.5" rx="1.5" ry="1.5" transform="translate(57.12)"/><ellipse class="b" cx="1.94" cy="1.94" rx="1.94" ry="1.94" transform="translate(56.68 24.73)"/><ellipse class="b" cx="2.38" cy="2.38" rx="2.38" ry="2.38" transform="translate(56.24 49.46)"/><ellipse class="b" cx="2.82" cy="2.82" rx="2.82" ry="2.82" transform="translate(55.8 74.19)"/><ellipse class="b" cx="3.26" cy="3.26" rx="3.26" ry="3.26" transform="translate(55.36 98.92)"/><ellipse class="b" cx="3.7" cy="3.7" rx="3.7" ry="3.7" transform="translate(54.92 123.65)"/><ellipse class="b" cx="4.14" cy="4.14" rx="4.14" ry="4.14" transform="translate(54.48 148.38)"/><ellipse class="b" cx="4.58" cy="4.58" rx="4.58" ry="4.58" transform="translate(54.04 173.11)"/><ellipse class="b" cx="1.94" cy="1.94" rx="1.94" ry="1.94" transform="translate(139.08 24.73)"/><ellipse class="b" cx="2.38" cy="2.38" rx="2.38" ry="2.38" transform="translate(138.64 49.46)"/><ellipse class="b" cx="2.82" cy="2.82" rx="2.82" ry="2.82" transform="translate(138.2 74.19)"/><ellipse class="b" cx="3.26" cy="3.26" rx="3.26" ry="3.26" transform="translate(137.76 98.92)"/><ellipse class="b" cx="3.7" cy="3.7" rx="3.7" ry="3.7" transform="translate(137.32 123.65)"/><ellipse class="b" cx="4.14" cy="4.14" rx="4.14" ry="4.14" transform="translate(136.88 148.38)"/><ellipse class="b" cx="1.5" cy="1.5" rx="1.5" ry="1.5" transform="translate(112.05)"/><ellipse class="b" cx="1.94" cy="1.94" rx="1.94" ry="1.94" transform="translate(111.61 24.73)"/><ellipse class="b" cx="2.38" cy="2.38" rx="2.38" ry="2.38" transform="translate(111.17 49.46)"/><ellipse class="b" cx="2.82" cy="2.82" rx="2.82" ry="2.82" transform="translate(110.73 74.19)"/><ellipse class="b" cx="3.26" cy="3.26" rx="3.26" ry="3.26" transform="translate(110.29 98.92)"/><ellipse class="b" cx="3.7" cy="3.7" rx="3.7" ry="3.7" transform="translate(109.85 123.65)"/><ellipse class="b" cx="4.14" cy="4.14" rx="4.14" ry="4.14" transform="translate(109.41 148.38)"/><ellipse class="b" cx="4.58" cy="4.58" rx="4.58" ry="4.58" transform="translate(108.97 173.11)"/><ellipse class="b" cx="2.38" cy="2.38" rx="2.38" ry="2.38" transform="translate(166.1 49.46)"/><ellipse class="b" cx="2.82" cy="2.82" rx="2.82" ry="2.82" transform="translate(165.66 74.19)"/><ellipse class="b" cx="3.26" cy="3.26" rx="3.26" ry="3.26" transform="translate(165.22 98.92)"/><ellipse class="b" cx="3.7" cy="3.7" rx="3.7" ry="3.7" transform="translate(164.78 123.65)"/></g></g></svg>