<svg xmlns="http://www.w3.org/2000/svg" width="96.094" height="79.814" viewBox="0 0 96.094 79.814"><defs><style>.a{fill:#fc8b7b;}</style></defs><g transform="translate(-424.956 -1588.875)"><path class="a" d="M525.24,190.43c-4.64-3.36-12.16-3.57-18.41-3.26-.54-4.37-1.26-8.71-2.25-13.14a2.08,2.08,0,0,0-4,0,92.79,92.79,0,0,0-1.87,13.9,55.349,55.349,0,0,0-16,5.19,1.58,1.58,0,0,0,.37,2.86c5,1,10.26.72,15.43.56,0,.88,0,1.77.07,2.66.26,6.36-1.26,16.05,4.41,20.1a3,3,0,0,0,3.57-.46c4.76-4.78,1.65-14.63,1.25-20.81,0-.43-.06-.85-.1-1.28,5.6.57,11.52,1.67,16.62.33C527.63,196.22,527.66,192.17,525.24,190.43Z" transform="translate(-57 1449)"/><path class="a" d="M574.3,183.88c-5-.42-10.28.41-15.43,1.25-.39-4.82-.74-9.88-3-14.08a.69.69,0,0,0-1.19,0c-2.71,4.31-3.19,10-3.37,15.2-6.38.79-13,1.34-18.88,4-.81.37-.49,1.53.23,1.77,5.87,1.95,12.3,1.75,18.48,1.52-.08,6.08.15,12.35,1.7,18.16,1.27,4.76,8.56,3.77,8.57-1.16a130.973,130.973,0,0,0-1.67-17.23c5.27-.12,10.68-.39,15.53-1.91C579.6,190.1,578.56,184.24,574.3,183.88Z" transform="translate(-57 1449)"/><path class="a" d="M542,160c-2.6-3.43-7-5.29-11.83-6,0-.62-.08-1.23-.1-1.85s.86-13.36-2.24-12.2c-4.25,1.61-4.54,8.89-4.6,13.83-6,.4-12,2.2-15.78,4.78-.89.6-1,2.35.33,2.56,5.09.8,10.25,1.08,15.37,1.7.18,5.8,1.15,12.11,4.53,16.07a2.78,2.78,0,0,0,4.62-1.22c.8-3.61-.11-6.64-.71-10.28-.16-.95-.3-1.91-.43-2.87,3,.69,6,1.18,8.79.49C541.91,164.59,543.35,161.79,542,160Z" transform="translate(-57 1449)"/></g></svg>